<svg width="55" height="55" viewBox="0 0 55 55" fill="none" xmlns="http://www.w3.org/2000/svg">
<path fill-rule="evenodd" clip-rule="evenodd" d="M27.5 55C12.3122 55 0 42.6878 0 27.5C0 12.3122 12.3122 0 27.5 0C42.6878 0 55 12.3122 55 27.5C55 42.6878 42.6878 55 27.5 55ZM24.9393 20.0607C24.3536 19.4749 24.3536 18.5251 24.9393 17.9393C25.5251 17.3536 26.4749 17.3536 27.0607 17.9393L35.0607 25.9393C35.6464 26.5251 35.6464 27.4749 35.0607 28.0607L27.0607 36.0607C26.4749 36.6464 25.5251 36.6464 24.9393 36.0607C24.3536 35.4749 24.3536 34.5251 24.9393 33.9393L31.8787 27L24.9393 20.0607Z" fill="black" fill-opacity="0.53"/>
</svg>
