<svg width="18" height="25" viewBox="0 0 18 25" fill="none" xmlns="http://www.w3.org/2000/svg">
<path d="M12 0.78125C12 2.23796 12.2578 3.58073 12.7734 4.80957C13.2891 6.03841 14.0312 7.1696 15 8.20312C15.9688 9.23665 16.7109 10.3678 17.2266 11.5967C17.7422 12.8255 18 14.1683 18 15.625C18 16.4876 17.8945 17.3177 17.6836 18.1152C17.4727 18.9128 17.168 19.6574 16.7695 20.3491C16.3711 21.0409 15.9023 21.6756 15.3633 22.2534C14.8242 22.8312 14.2188 23.3195 13.5469 23.7183C12.875 24.117 12.1562 24.4303 11.3906 24.6582C10.625 24.8861 9.82812 25 9 25C8.17188 25 7.375 24.8901 6.60938 24.6704C5.84375 24.4507 5.12891 24.1333 4.46484 23.7183C3.80078 23.3032 3.19141 22.8149 2.63672 22.2534C2.08203 21.6919 1.61328 21.0612 1.23047 20.3613C0.847656 19.6615 0.546875 18.9128 0.328125 18.1152C0.109375 17.3177 0 16.4876 0 15.625C0 14.9414 0.0703125 14.27 0.210938 13.6108C0.351562 12.9517 0.554688 12.321 0.820312 11.7188C1.08594 11.1165 1.41406 10.5428 1.80469 9.99756C2.19531 9.45231 2.63672 8.95996 3.12891 8.52051C3.18359 8.82975 3.25781 9.14714 3.35156 9.47266C3.44531 9.79818 3.55469 10.1237 3.67969 10.4492C3.80469 10.7747 3.95312 11.084 4.125 11.377C4.29688 11.6699 4.47656 11.9425 4.66406 12.1948C4.82031 12.3983 5.02344 12.5 5.27344 12.5C5.48438 12.5 5.66016 12.4227 5.80078 12.2681C5.94141 12.1134 6.01562 11.9263 6.02344 11.7065C6.02344 11.617 6.01172 11.5356 5.98828 11.4624C5.96484 11.3892 5.92578 11.3159 5.87109 11.2427C5.65234 10.909 5.46094 10.5794 5.29688 10.2539C5.13281 9.92839 4.98828 9.59473 4.86328 9.25293C4.73828 8.91113 4.64844 8.55713 4.59375 8.19092C4.53906 7.82471 4.50781 7.43815 4.5 7.03125C4.5 6.06283 4.67578 5.15137 5.02734 4.29688C5.37891 3.44238 5.86328 2.69775 6.48047 2.06299C7.09766 1.42822 7.8125 0.927734 8.625 0.561523C9.4375 0.195312 10.3125 0.00813802 11.25 0H12V0.78125ZM9 23.4375C10.0391 23.4375 11.0117 23.234 11.918 22.8271C12.8242 22.4202 13.6211 21.8628 14.3086 21.1548C14.9961 20.4468 15.5312 19.6208 15.9141 18.6768C16.2969 17.7327 16.4922 16.7155 16.5 15.625C16.5 14.3962 16.2812 13.2528 15.8438 12.1948C15.4062 11.1369 14.7734 10.1766 13.9453 9.31396C12.9297 8.24788 12.1328 7.07194 11.5547 5.78613C10.9766 4.50033 10.6328 3.10872 10.5234 1.61133C9.875 1.70085 9.27734 1.9043 8.73047 2.22168C8.18359 2.53906 7.70312 2.94189 7.28906 3.43018C6.875 3.91846 6.55859 4.46777 6.33984 5.07812C6.12109 5.68848 6.00781 6.33952 6 7.03125C6 7.66602 6.08984 8.23975 6.26953 8.75244C6.44922 9.26514 6.71484 9.77783 7.06641 10.2905C7.21484 10.5021 7.32812 10.7218 7.40625 10.9497C7.48438 11.1776 7.52734 11.4299 7.53516 11.7065C7.53516 12.0321 7.47656 12.3372 7.35938 12.6221C7.24219 12.9069 7.07812 13.1551 6.86719 13.3667C6.65625 13.5783 6.41797 13.7492 6.15234 13.8794C5.88672 14.0096 5.59375 14.0706 5.27344 14.0625C4.91406 14.0625 4.59766 13.9933 4.32422 13.855C4.05078 13.7166 3.80859 13.5295 3.59766 13.2935C3.38672 13.0575 3.19922 12.793 3.03516 12.5C2.87109 12.207 2.71484 11.9141 2.56641 11.6211C2.20703 12.2152 1.94141 12.854 1.76953 13.5376C1.59766 14.2212 1.50781 14.917 1.5 15.625C1.5 16.7074 1.69531 17.7205 2.08594 18.6646C2.47656 19.6086 3.01172 20.4386 3.69141 21.1548C4.37109 21.8709 5.16406 22.4284 6.07031 22.8271C6.97656 23.2259 7.95312 23.4294 9 23.4375Z" fill="#9A0A10"/>
</svg>
