<svg width="28" height="27" viewBox="0 0 28 27" fill="none" xmlns="http://www.w3.org/2000/svg">
<path d="M20.6479 3.90776C20.4183 2.80861 19.7851 1.81784 18.8567 1.10499C17.9284 0.392141 16.7625 0.0015298 15.5586 0C15.2836 0 15.0199 0.101594 14.8255 0.282432C14.631 0.463271 14.5218 0.70854 14.5218 0.964285C14.5218 1.22003 14.631 1.4653 14.8255 1.64614C15.0199 1.82698 15.2836 1.92857 15.5586 1.92857C16.2172 1.92857 16.8588 2.12302 17.391 2.4839C17.9232 2.84479 18.3185 3.35348 18.5199 3.93669C16.547 4.20378 14.7433 5.12205 13.4382 6.52379C12.1331 7.92552 11.4137 9.71715 11.4114 11.5714C11.4114 17.2065 8.07429 20.9732 1.4933 22.7812C1.04315 22.9033 0.650755 23.1636 0.380156 23.5197C0.109557 23.8759 -0.0232719 24.3068 0.00334521 24.7422C0.0299623 25.1776 0.214454 25.5918 0.526713 25.9171C0.838973 26.2424 1.26056 26.4597 1.72269 26.5335C3.67059 26.8466 5.64392 27.0026 7.6207 27C12.9057 27 18.7869 25.8971 22.8524 22.7258C26.2686 20.0619 28 16.3085 28 11.5714C27.9978 9.67784 27.2477 7.851 25.8923 6.43809C24.5368 5.02518 22.6704 4.12469 20.6479 3.90776ZM23.8529 10.4866L20.1697 8.77861C20.0256 8.71157 19.8668 8.67666 19.7057 8.67666C19.5447 8.67666 19.3858 8.71157 19.2418 8.77861L15.5586 10.4866L13.8259 9.68142C14.2483 8.54373 15.0418 7.55692 16.0957 6.85843C17.1497 6.15994 18.4116 5.78456 19.7057 5.78456C20.9999 5.78456 22.2618 6.15994 23.3157 6.85843C24.3696 7.55692 25.1631 8.54373 25.5856 9.68142L23.8529 10.4866Z" fill="#F8F8F8"/>
</svg>
