<svg width="28" height="27" viewBox="0 0 28 27" fill="none" xmlns="http://www.w3.org/2000/svg">
<path d="M20.5498 3.95917C20.3669 2.85779 19.7664 1.85347 18.8568 1.12747C17.9473 0.401459 16.7885 0.00158227 15.5896 0C15.3795 0 15.1781 0.0775808 15.0295 0.215675C14.8809 0.35377 14.7975 0.541066 14.7975 0.736362C14.7975 0.931657 14.8809 1.11895 15.0295 1.25705C15.1781 1.39514 15.3795 1.47272 15.5896 1.47272C16.3705 1.47269 17.1279 1.72011 17.7371 2.17415C18.3463 2.6282 18.7708 3.26173 18.9404 3.97022C16.9332 4.17278 15.077 5.05693 13.7277 6.45317C12.3784 7.84941 11.6311 9.65947 11.6289 11.5363C11.6289 17.3965 8.16586 21.3152 1.33091 23.1868C0.929576 23.2956 0.579764 23.5276 0.33859 23.8451C0.0974148 24.1625 -0.0208773 24.5465 0.00302497 24.9345C0.0269272 25.3225 0.191612 25.6915 0.470194 25.9812C0.748775 26.271 1.1248 26.4644 1.53687 26.5299C3.50991 26.8467 5.50876 27.004 7.51101 26.9999C12.8395 26.9999 18.7635 25.8954 22.851 22.7045C26.2678 20.0401 28 16.2822 28 11.5363C27.9979 9.6373 27.2327 7.8075 25.8544 6.40576C24.4762 5.00401 22.5843 4.13145 20.5498 3.95917ZM19.8144 5.39998C21.2278 5.40159 22.6034 5.82408 23.7396 6.6055C24.8758 7.38693 25.7128 8.48617 26.1279 9.74206L24.0392 10.7116L20.1683 8.91243C20.0584 8.86144 19.9373 8.83489 19.8144 8.83489C19.6916 8.83489 19.5705 8.86144 19.4606 8.91243L15.5896 10.7116L13.5023 9.74084C13.9172 8.48517 14.754 7.38612 15.89 6.6049C17.026 5.82367 18.4014 5.40139 19.8144 5.39998ZM21.8318 21.5779C18.514 24.1637 11.2803 26.6317 1.81545 25.0768C1.75431 25.0704 1.69789 25.0431 1.65716 25.0003C1.61642 24.9574 1.59425 24.902 1.59496 24.8448C1.58741 24.7893 1.60265 24.7332 1.63765 24.6877C1.67265 24.6422 1.72483 24.6107 1.78376 24.5994C9.26035 22.5486 13.2132 18.031 13.2132 11.5363C13.2132 11.4431 13.2132 11.351 13.2211 11.259L15.2358 12.1954C15.3457 12.2464 15.4668 12.2729 15.5896 12.2729C15.7124 12.2729 15.8336 12.2464 15.9435 12.1954L19.8144 10.3937L23.6854 12.1929C23.7953 12.2439 23.9164 12.2705 24.0392 12.2705C24.1621 12.2705 24.2832 12.2439 24.3931 12.1929L26.4078 11.2565C26.4078 11.3486 26.4157 11.4406 26.4157 11.5339C26.4157 15.8318 24.8736 19.2055 21.8318 21.5766V21.5779Z" fill="#F8F8F8"/>
</svg>
