<svg width="57" height="57" viewBox="0 0 57 57" fill="none" xmlns="http://www.w3.org/2000/svg">
<path d="M28.4092 57C44.0991 57 56.8183 44.2808 56.8183 28.5909C56.8183 12.901 44.0991 0.181824 28.4092 0.181824C12.7193 0.181824 0.00012207 12.901 0.00012207 28.5909C0.00012207 44.2808 12.7193 57 28.4092 57Z" fill="#ED4C5C"/>
<path d="M18.9395 25.1818L26.5153 30.4848L23.6744 21.7727L31.2501 16.2803H21.8751L18.9395 7.75758L16.0986 16.2803H6.62891L14.2047 21.7727L11.3638 30.4848L18.9395 25.1818ZM31.5342 31.7159L29.3562 32.1894L31.4395 33.0417V35.2197L32.86 33.6098L34.9433 34.3674L33.7122 32.5682L35.038 30.8636L32.86 31.3371L31.5342 29.5379V31.7159ZM34.7539 25.2765L33.1441 26.697L35.3221 26.5076L36.2691 28.5909L36.6478 26.4129L38.8259 26.2235L36.9319 25.0871L37.4054 22.9091L35.7956 24.3295L33.9016 23.1932L34.7539 25.2765ZM35.3221 17.8902L35.985 20.0682L36.6478 17.9848H38.8259L37.1213 16.6591L37.7842 14.4811L35.985 15.8068L34.2804 14.3864L34.9433 16.5644L33.1441 17.7955L35.3221 17.8902ZM31.5342 10.3144V12.4924L32.86 10.6932L35.038 11.1667L33.7122 9.46212L34.9433 7.66288L32.86 8.51515L31.4395 6.81061V8.98864L29.3562 9.84091L31.5342 10.3144Z" fill="#FFE62E"/>
</svg>
