<svg width="28" height="27" viewBox="0 0 28 27" fill="none" xmlns="http://www.w3.org/2000/svg">
<path d="M4 3.0375C4 2.2319 4.31607 1.4593 4.87868 0.889663C5.44129 0.320021 6.20435 0 7 0H19.6667C20.4623 0 21.2254 0.320021 21.788 0.889663C22.3506 1.4593 22.6667 2.2319 22.6667 3.0375V14.85H28V19.9125C28 20.4887 27.8879 21.0592 27.6701 21.5915C27.4524 22.1238 27.1332 22.6075 26.7308 23.0149C26.3284 23.4223 25.8507 23.7455 25.325 23.966C24.7992 24.1865 24.2357 24.3 23.6667 24.3H14.6373C15.5295 22.8898 16.0026 21.2497 16 19.575C16 16.8615 14.7827 14.4342 12.872 12.825H17C17.2652 12.825 17.5196 12.7183 17.7071 12.5284C17.8946 12.3386 18 12.081 18 11.8125C18 11.544 17.8946 11.2864 17.7071 11.0966C17.5196 10.9067 17.2652 10.8 17 10.8H9.66667C9.45333 10.8 9.25733 10.8675 9.09467 10.9809C7.38617 10.6242 5.61126 10.7954 4 11.4723V3.0375ZM22.6667 22.275H23.6667C24.2855 22.275 24.879 22.0261 25.3166 21.583C25.7542 21.14 26 20.5391 26 19.9125V16.875H22.6667V22.275ZM8.66667 6.4125C8.66667 6.9714 9.11467 7.425 9.66667 7.425H17C17.2652 7.425 17.5196 7.31833 17.7071 7.12845C17.8946 6.93856 18 6.68103 18 6.4125C18 6.14397 17.8946 5.88644 17.7071 5.69655C17.5196 5.50667 17.2652 5.4 17 5.4H9.66667C9.40145 5.4 9.1471 5.50667 8.95956 5.69655C8.77202 5.88644 8.66667 6.14397 8.66667 6.4125ZM14.6667 19.575C14.6667 18.5999 14.477 17.6344 14.1085 16.7336C13.7399 15.8327 13.1997 15.0142 12.5188 14.3247C11.8378 13.6353 11.0294 13.0883 10.1397 12.7152C9.24996 12.3421 8.29636 12.15 7.33333 12.15C6.37031 12.15 5.41671 12.3421 4.52699 12.7152C3.63727 13.0883 2.82885 13.6353 2.14788 14.3247C1.46692 15.0142 0.926751 15.8327 0.558217 16.7336C0.189682 17.6344 -1.43502e-08 18.5999 0 19.575C2.89816e-08 21.5442 0.772617 23.4328 2.14788 24.8253C3.52315 26.2177 5.38841 27 7.33333 27C9.27825 27 11.1435 26.2177 12.5188 24.8253C13.8941 23.4328 14.6667 21.5442 14.6667 19.575ZM8 20.25L8.00133 23.6291C8.00133 23.8081 7.9311 23.9798 7.80607 24.1063C7.68105 24.2329 7.51148 24.3041 7.33467 24.3041C7.15786 24.3041 6.98829 24.2329 6.86326 24.1063C6.73824 23.9798 6.668 23.8081 6.668 23.6291V20.25H3.328C3.15119 20.25 2.98162 20.1789 2.8566 20.0523C2.73157 19.9257 2.66133 19.754 2.66133 19.575C2.66133 19.396 2.73157 19.2243 2.8566 19.0977C2.98162 18.9711 3.15119 18.9 3.328 18.9H6.66667V15.525C6.66667 15.346 6.73691 15.1743 6.86193 15.0477C6.98695 14.9211 7.15652 14.85 7.33333 14.85C7.51014 14.85 7.67971 14.9211 7.80474 15.0477C7.92976 15.1743 8 15.346 8 15.525V18.9H11.3293C11.5061 18.9 11.6757 18.9711 11.8007 19.0977C11.9258 19.2243 11.996 19.396 11.996 19.575C11.996 19.754 11.9258 19.9257 11.8007 20.0523C11.6757 20.1789 11.5061 20.25 11.3293 20.25H8Z" fill="#F8F8F8"/>
</svg>
