<svg width="29" height="27" viewBox="0 0 29 27" fill="none" xmlns="http://www.w3.org/2000/svg">
<path d="M4.14286 3.0375C4.14286 2.2319 4.47022 1.4593 5.05292 0.889663C5.63562 0.320021 6.42593 0 7.25 0H20.369C21.1931 0 21.9834 0.320021 22.5661 0.889663C23.1488 1.4593 23.4762 2.2319 23.4762 3.0375V14.85H29V19.9125C29 20.4887 28.8839 21.0592 28.6584 21.5915C28.4328 22.1238 28.1022 22.6075 27.6855 23.0149C27.2687 23.4223 26.7739 23.7455 26.2294 23.966C25.6849 24.1865 25.1013 24.3 24.5119 24.3H15.1601C15.5702 23.6749 15.9003 22.9959 16.1392 22.275H21.4048V3.0375C21.4048 2.76897 21.2956 2.51143 21.1014 2.32155C20.9072 2.13167 20.6437 2.025 20.369 2.025H7.25C6.97531 2.025 6.71187 2.13167 6.51764 2.32155C6.32341 2.51143 6.21429 2.76897 6.21429 3.0375V10.9026C5.50294 11.0106 4.80747 11.2019 4.14286 11.4723V3.0375ZM17.6071 12.825H13.3317C12.2017 11.9065 10.8583 11.2733 9.41948 10.9809C9.59339 10.8628 9.80015 10.7997 10.0119 10.8H17.6071C17.8818 10.8 18.1453 10.9067 18.3395 11.0966C18.5337 11.2864 18.6429 11.544 18.6429 11.8125C18.6429 12.081 18.5337 12.3386 18.3395 12.5284C18.1453 12.7183 17.8818 12.825 17.6071 12.825ZM23.4762 22.275H24.5119C25.1528 22.275 25.7675 22.0261 26.2207 21.583C26.674 21.14 26.9286 20.5391 26.9286 19.9125V16.875H23.4762V22.275ZM10.0119 5.4C9.73722 5.4 9.47378 5.50667 9.27954 5.69655C9.08531 5.88644 8.97619 6.14397 8.97619 6.4125C8.97619 6.68103 9.08531 6.93856 9.27954 7.12845C9.47378 7.31833 9.73722 7.425 10.0119 7.425H17.6071C17.8818 7.425 18.1453 7.31833 18.3395 7.12845C18.5337 6.93856 18.6429 6.68103 18.6429 6.4125C18.6429 6.14397 18.5337 5.88644 18.3395 5.69655C18.1453 5.50667 17.8818 5.4 17.6071 5.4H10.0119ZM15.1905 19.575C15.1905 18.5999 14.994 17.6344 14.6123 16.7336C14.2306 15.8327 13.6712 15.0142 12.9659 14.3247C12.2606 13.6353 11.4233 13.0883 10.5018 12.7152C9.58031 12.3421 8.59266 12.15 7.59524 12.15C6.59782 12.15 5.61016 12.3421 4.68867 12.7152C3.76717 13.0883 2.92988 13.6353 2.22459 14.3247C1.51931 15.0142 0.959849 15.8327 0.578153 16.7336C0.196457 17.6344 -1.48627e-08 18.5999 0 19.575C3.00166e-08 21.5442 0.80021 23.4328 2.22459 24.8253C3.64898 26.2177 5.58086 27 7.59524 27C9.60962 27 11.5415 26.2177 12.9659 24.8253C14.3903 23.4328 15.1905 21.5442 15.1905 19.575ZM8.28571 20.25L8.2871 23.6291C8.2871 23.8081 8.21435 23.9798 8.08486 24.1063C7.95537 24.2329 7.77974 24.3041 7.59662 24.3041C7.41349 24.3041 7.23787 24.2329 7.10838 24.1063C6.97889 23.9798 6.90614 23.8081 6.90614 23.6291V20.25H3.44686C3.26373 20.25 3.08811 20.1789 2.95862 20.0523C2.82913 19.9257 2.75638 19.754 2.75638 19.575C2.75638 19.396 2.82913 19.2243 2.95862 19.0977C3.08811 18.9711 3.26373 18.9 3.44686 18.9H6.90476V15.525C6.90476 15.346 6.97751 15.1743 7.107 15.0477C7.23649 14.9211 7.41211 14.85 7.59524 14.85C7.77836 14.85 7.95399 14.9211 8.08348 15.0477C8.21297 15.1743 8.28571 15.346 8.28571 15.525V18.9H11.734C11.9171 18.9 12.0927 18.9711 12.2222 19.0977C12.3517 19.2243 12.4244 19.396 12.4244 19.575C12.4244 19.754 12.3517 19.9257 12.2222 20.0523C12.0927 20.1789 11.9171 20.25 11.734 20.25H8.28571Z" fill="#F8F8F8"/>
</svg>
