<svg width="25" height="27" viewBox="0 0 25 27" fill="none" xmlns="http://www.w3.org/2000/svg">
<path d="M24.6752 7.76245C24.3455 7.03963 23.8109 6.43533 23.141 6.02836L14.5841 0.609347C13.9564 0.211028 13.2327 0 12.4944 0C11.7561 0 11.0324 0.211028 10.4048 0.609347L1.84783 6.02836C1.19916 6.45155 0.68454 7.05871 0.366566 7.776C0.0362575 8.49328 -0.0743974 9.29616 0.0491525 10.0791L2.27105 23.6266C2.41353 24.5713 2.88295 25.4321 3.5936 26.0516C4.29862 26.6565 5.18686 26.9917 6.10646 27H18.8295C19.7672 27.0044 20.6763 26.6684 21.3952 26.0516C22.1096 25.4352 22.5799 24.573 22.7178 23.6266L24.9397 10.0791C25.0744 9.29698 24.9824 8.4916 24.6752 7.76245ZM16.925 20.9036H8.07707C7.72631 20.9036 7.38991 20.7608 7.14188 20.5068C6.89386 20.2527 6.75452 19.9081 6.75452 19.5488C6.75452 19.1895 6.89386 18.8449 7.14188 18.5909C7.38991 18.3368 7.72631 18.1941 8.07707 18.1941H16.925C17.2757 18.1941 17.6121 18.3368 17.8602 18.5909C18.1082 18.8449 18.2475 19.1895 18.2475 19.5488C18.2475 19.9081 18.1082 20.2527 17.8602 20.5068C17.6121 20.7608 17.2757 20.9036 16.925 20.9036Z" fill="#F8F8F8"/>
</svg>
