<svg width="26" height="27" viewBox="0 0 26 27" fill="none" xmlns="http://www.w3.org/2000/svg">
<path d="M23.5106 6.8905L14.5969 1.45736C14.1092 1.15847 13.5458 1 12.9709 1C12.3959 1 11.8325 1.15847 11.3448 1.45736L2.43259 6.92158C1.92585 7.23527 1.52366 7.68763 1.27559 8.22292C1.02752 8.75821 0.944406 9.35305 1.03648 9.93413L3.3358 23.4859C3.45733 24.1953 3.83337 24.8387 4.39596 25.2997C4.95855 25.7608 5.67058 26.009 6.40339 25.9997H19.5962C20.3293 26.0094 21.0416 25.7612 21.6045 25.3002C22.1674 24.8391 22.5436 24.1956 22.6652 23.4859L24.9645 9.93413C25.057 9.34236 24.9678 8.73695 24.7084 8.19512C24.4489 7.65329 24.031 7.19958 23.5078 6.89185M8.36951 19.5259H17.5736" stroke="#F8F8F8" stroke-width="2" stroke-linecap="round" stroke-linejoin="round"/>
</svg>
