<svg width="58" height="57" viewBox="0 0 58 57" fill="none" xmlns="http://www.w3.org/2000/svg">
<path d="M29.1629 0C16.8523 0 6.34095 7.95455 2.45837 18.9394H56.0569C52.0796 7.95455 41.5682 0 29.1629 0Z" fill="#F2B200"/>
<path d="M29.1629 56.8182C41.5682 56.8182 52.0796 48.9583 55.9622 37.8788H2.45837C6.34095 48.9583 16.8523 56.8182 29.1629 56.8182Z" fill="#83BF4F"/>
<path d="M2.45836 18.9394C1.41669 21.875 0.848511 25.0947 0.848511 28.4091C0.848511 31.7235 1.41669 34.9432 2.45836 37.8788H56.0568C57.0985 34.9432 57.6667 31.7235 57.6667 28.4091C57.6667 25.0947 57.0985 21.875 56.0568 18.9394H2.45836Z" fill="white"/>
<path d="M29.1629 35.9849C33.3469 35.9849 36.7387 32.5931 36.7387 28.4091C36.7387 24.2251 33.3469 20.8333 29.1629 20.8333C24.9789 20.8333 21.5872 24.2251 21.5872 28.4091C21.5872 32.5931 24.9789 35.9849 29.1629 35.9849Z" fill="#428BC1"/>
<path d="M29.1629 35.0379C32.8239 35.0379 35.7917 32.0701 35.7917 28.4091C35.7917 24.7481 32.8239 21.7803 29.1629 21.7803C25.5019 21.7803 22.5341 24.7481 22.5341 28.4091C22.5341 32.0701 25.5019 35.0379 29.1629 35.0379Z" fill="white"/>
<path d="M26.7007 22.7273C26.9622 22.7273 27.1742 22.5153 27.1742 22.2538C27.1742 21.9923 26.9622 21.7803 26.7007 21.7803C26.4393 21.7803 26.2273 21.9923 26.2273 22.2538C26.2273 22.5153 26.4393 22.7273 26.7007 22.7273Z" fill="#428BC1"/>
<path d="M25.1856 23.5795C25.4471 23.5795 25.6591 23.3676 25.6591 23.1061C25.6591 22.8446 25.4471 22.6326 25.1856 22.6326C24.9241 22.6326 24.7121 22.8446 24.7121 23.1061C24.7121 23.3676 24.9241 23.5795 25.1856 23.5795Z" fill="#428BC1"/>
<path d="M23.9545 24.8106C24.216 24.8106 24.428 24.5986 24.428 24.3371C24.428 24.0756 24.216 23.8636 23.9545 23.8636C23.693 23.8636 23.481 24.0756 23.481 24.3371C23.481 24.5986 23.693 24.8106 23.9545 24.8106Z" fill="#428BC1"/>
<path d="M23.1022 26.3258C23.3637 26.3258 23.5757 26.1138 23.5757 25.8523C23.5757 25.5908 23.3637 25.3788 23.1022 25.3788C22.8407 25.3788 22.6288 25.5908 22.6288 25.8523C22.6288 26.1138 22.8407 26.3258 23.1022 26.3258Z" fill="#428BC1"/>
<path d="M22.6288 28.0303C22.8903 28.0303 23.1022 27.8183 23.1022 27.5568C23.1022 27.2953 22.8903 27.0833 22.6288 27.0833C22.3673 27.0833 22.1553 27.2953 22.1553 27.5568C22.1553 27.8183 22.3673 28.0303 22.6288 28.0303Z" fill="#428BC1"/>
<path d="M22.6288 29.7348C22.8903 29.7348 23.1022 29.5229 23.1022 29.2614C23.1022 28.9999 22.8903 28.7879 22.6288 28.7879C22.3673 28.7879 22.1553 28.9999 22.1553 29.2614C22.1553 29.5229 22.3673 29.7348 22.6288 29.7348Z" fill="#428BC1"/>
<path d="M23.1022 31.4394C23.3637 31.4394 23.5757 31.2274 23.5757 30.9659C23.5757 30.7044 23.3637 30.4924 23.1022 30.4924C22.8407 30.4924 22.6288 30.7044 22.6288 30.9659C22.6288 31.2274 22.8407 31.4394 23.1022 31.4394Z" fill="#428BC1"/>
<path d="M23.9545 32.9545C24.216 32.9545 24.428 32.7426 24.428 32.4811C24.428 32.2196 24.216 32.0076 23.9545 32.0076C23.693 32.0076 23.481 32.2196 23.481 32.4811C23.481 32.7426 23.693 32.9545 23.9545 32.9545Z" fill="#428BC1"/>
<path d="M25.1856 34.1856C25.4471 34.1856 25.6591 33.9736 25.6591 33.7121C25.6591 33.4506 25.4471 33.2386 25.1856 33.2386C24.9241 33.2386 24.7121 33.4506 24.7121 33.7121C24.7121 33.9736 24.9241 34.1856 25.1856 34.1856Z" fill="#428BC1"/>
<path d="M26.7007 35.0379C26.9622 35.0379 27.1742 34.8259 27.1742 34.5644C27.1742 34.3029 26.9622 34.0909 26.7007 34.0909C26.4393 34.0909 26.2273 34.3029 26.2273 34.5644C26.2273 34.8259 26.4393 35.0379 26.7007 35.0379Z" fill="#428BC1"/>
<path d="M28.3106 35.4167C28.5721 35.4167 28.7841 35.2047 28.7841 34.9432C28.7841 34.6817 28.5721 34.4697 28.3106 34.4697C28.0491 34.4697 27.8371 34.6817 27.8371 34.9432C27.8371 35.2047 28.0491 35.4167 28.3106 35.4167Z" fill="#428BC1"/>
<path d="M29.6364 35.0379C29.6364 34.7538 29.8257 34.5644 30.0151 34.4697C30.2992 34.4697 30.4886 34.6591 30.5833 34.8485C30.5833 35.1326 30.3939 35.322 30.2045 35.4167C29.8257 35.5114 29.6364 35.322 29.6364 35.0379Z" fill="#428BC1"/>
<path d="M31.7197 35.0379C31.9812 35.0379 32.1932 34.8259 32.1932 34.5644C32.1932 34.3029 31.9812 34.0909 31.7197 34.0909C31.4582 34.0909 31.2462 34.3029 31.2462 34.5644C31.2462 34.8259 31.4582 35.0379 31.7197 35.0379Z" fill="#428BC1"/>
<path d="M33.2348 34.1856C33.4963 34.1856 33.7083 33.9736 33.7083 33.7121C33.7083 33.4506 33.4963 33.2386 33.2348 33.2386C32.9733 33.2386 32.7614 33.4506 32.7614 33.7121C32.7614 33.9736 32.9733 34.1856 33.2348 34.1856Z" fill="#428BC1"/>
<path d="M34.4659 32.9545C34.7274 32.9545 34.9394 32.7426 34.9394 32.4811C34.9394 32.2196 34.7274 32.0076 34.4659 32.0076C34.2044 32.0076 33.9924 32.2196 33.9924 32.4811C33.9924 32.7426 34.2044 32.9545 34.4659 32.9545Z" fill="#428BC1"/>
<path d="M35.3182 31.4394C35.5796 31.4394 35.7916 31.2274 35.7916 30.9659C35.7916 30.7044 35.5796 30.4924 35.3182 30.4924C35.0567 30.4924 34.8447 30.7044 34.8447 30.9659C34.8447 31.2274 35.0567 31.4394 35.3182 31.4394Z" fill="#428BC1"/>
<path d="M35.7917 29.7348C36.0532 29.7348 36.2651 29.5229 36.2651 29.2614C36.2651 28.9999 36.0532 28.7879 35.7917 28.7879C35.5302 28.7879 35.3182 28.9999 35.3182 29.2614C35.3182 29.5229 35.5302 29.7348 35.7917 29.7348Z" fill="#428BC1"/>
<path d="M35.7916 28.0303C35.5075 28.0303 35.3181 27.8409 35.2234 27.6515C35.2234 27.3674 35.4128 27.178 35.6022 27.0833C35.8863 27.0833 36.0757 27.2727 36.1704 27.4621C36.2651 27.7462 36.0757 27.9356 35.7916 28.0303Z" fill="#428BC1"/>
<path d="M35.3182 26.3258C35.5796 26.3258 35.7916 26.1138 35.7916 25.8523C35.7916 25.5908 35.5796 25.3788 35.3182 25.3788C35.0567 25.3788 34.8447 25.5908 34.8447 25.8523C34.8447 26.1138 35.0567 26.3258 35.3182 26.3258Z" fill="#428BC1"/>
<path d="M34.4659 24.8106C34.7274 24.8106 34.9394 24.5986 34.9394 24.3371C34.9394 24.0756 34.7274 23.8636 34.4659 23.8636C34.2044 23.8636 33.9924 24.0756 33.9924 24.3371C33.9924 24.5986 34.2044 24.8106 34.4659 24.8106Z" fill="#428BC1"/>
<path d="M33.2348 23.5795C33.4963 23.5795 33.7083 23.3676 33.7083 23.1061C33.7083 22.8446 33.4963 22.6326 33.2348 22.6326C32.9733 22.6326 32.7614 22.8446 32.7614 23.1061C32.7614 23.3676 32.9733 23.5795 33.2348 23.5795Z" fill="#428BC1"/>
<path d="M32.1932 22.4432C32.0985 22.7273 31.8144 22.822 31.5303 22.7273C31.2462 22.6326 31.1515 22.3485 31.2462 22.0644C31.3409 21.7803 31.625 21.6856 31.9091 21.7803C32.1932 21.9697 32.2879 22.2538 32.1932 22.4432ZM30.4886 21.875C30.4886 22.1591 30.2045 22.3485 29.9204 22.2538C29.6363 22.2538 29.4469 21.9697 29.5416 21.6856C29.5416 21.4015 29.8257 21.2121 30.1098 21.3068C30.3939 21.4015 30.5833 21.6856 30.4886 21.875ZM28.7841 21.7803C28.7841 22.0644 28.5947 22.2538 28.4053 22.3485C28.1212 22.3485 27.9318 22.1591 27.8371 21.9697C27.8371 21.6856 28.0265 21.4962 28.2159 21.4015C28.5 21.3068 28.7841 21.4962 28.7841 21.7803Z" fill="#428BC1"/>
<path d="M29.1629 29.8296C29.9474 29.8296 30.5833 29.1936 30.5833 28.4091C30.5833 27.6246 29.9474 26.9886 29.1629 26.9886C28.3784 26.9886 27.7424 27.6246 27.7424 28.4091C27.7424 29.1936 28.3784 29.8296 29.1629 29.8296Z" fill="#428BC1"/>
<path d="M29.1629 21.7803L28.9735 25.8523L29.1629 28.4091L29.4469 25.8523L29.1629 21.7803ZM27.4583 21.9697L28.3106 26.0417L29.1629 28.4091L28.7841 25.8523L27.4583 21.9697Z" fill="#428BC1"/>
<path d="M25.8485 22.6326L27.7424 26.3258L29.1629 28.4091L28.1212 26.0417L25.8485 22.6326ZM24.5227 23.6742L27.2689 26.7992L29.1629 28.4091L27.553 26.4204L24.5227 23.6742Z" fill="#428BC1"/>
<path d="M23.481 25.0947L26.8901 27.3674L29.1629 28.4091L27.0795 26.8939L23.481 25.0947Z" fill="#428BC1"/>
<path d="M22.8181 26.7046L26.7007 27.9356L29.1628 28.4091L26.7954 27.5568L22.8181 26.7046ZM22.5341 28.4091L26.7007 28.5985L29.1628 28.4091L26.7007 28.2197L22.5341 28.4091Z" fill="#428BC1"/>
<path d="M22.8182 30.1136L26.7954 29.2614L29.1629 28.4091L26.7008 28.8826L22.8182 30.1136ZM23.4811 31.7235L27.0795 29.9242L29.1629 28.4091L26.8901 29.4508L23.4811 31.7235Z" fill="#428BC1"/>
<path d="M24.5227 33.0492L27.553 30.3977L29.1629 28.4091L27.2689 30.0189L24.5227 33.0492ZM25.8485 34.1856L28.1212 30.6818L29.1629 28.4091L27.7424 30.4924L25.8485 34.1856Z" fill="#428BC1"/>
<path d="M27.4583 34.8485L28.7841 30.9659L29.1629 28.4091L28.3106 30.7765L27.4583 34.8485ZM29.1629 35.0379L29.4469 30.9659L29.1629 28.4091L28.9735 30.9659L29.1629 35.0379ZM30.8674 34.8485L30.1098 30.7765L29.1629 28.4091L29.6363 30.9659L30.8674 34.8485Z" fill="#428BC1"/>
<path d="M32.4773 34.1856L30.678 30.4924L29.1629 28.4091L30.2992 30.7765L32.4773 34.1856ZM33.8977 33.0492L31.1515 30.0189L29.1629 28.4091L30.8674 30.3977L33.8977 33.0492Z" fill="#428BC1"/>
<path d="M34.9394 31.7235L31.5303 29.4508L29.1629 28.4091L31.2462 29.9243L34.9394 31.7235ZM35.6023 30.1136L31.7197 28.8826L29.1629 28.4091L31.625 29.2614L35.6023 30.1136ZM35.7917 28.4091L31.7197 28.125L29.1629 28.4091L31.7197 28.5985L35.7917 28.4091ZM35.6023 26.7046L31.625 27.5568L29.1629 28.4091L31.7197 27.9356L35.6023 26.7046Z" fill="#428BC1"/>
<path d="M34.9394 25.0947L31.2462 26.894L29.1629 28.4091L31.5303 27.3674L34.9394 25.0947ZM33.8977 23.769L30.8674 26.4205L29.1629 28.4091L31.1515 26.7993L33.8977 23.769Z" fill="#428BC1"/>
<path d="M32.4773 22.6326L30.2992 26.1364L29.1629 28.4091L30.678 26.3258L32.4773 22.6326Z" fill="#428BC1"/>
<path d="M30.9621 21.9697L29.6364 25.8523L29.1629 28.4091L30.1098 26.0417L30.9621 21.9697Z" fill="#428BC1"/>
</svg>
