<svg width="58" height="57" viewBox="0 0 58 57" fill="none" xmlns="http://www.w3.org/2000/svg">
<path d="M51.9849 11.394H29.2576V17.0758H55.2993C54.447 15.0871 53.3106 13.0985 51.9849 11.394Z" fill="#ED4C5C"/>
<path d="M57.0985 34.1212C57.4773 32.322 57.6667 30.428 57.6667 28.4394H0.848511C0.848511 30.428 1.0379 32.322 1.41669 34.1212H57.0985Z" fill="#F9F9F9"/>
<path d="M29.2576 0.030304V5.71212H46.3031C41.5682 2.11364 35.697 0.030304 29.2576 0.030304Z" fill="#ED4C5C"/>
<path d="M29.2576 11.3939H51.9849C50.375 9.21592 48.4811 7.32198 46.3031 5.71213H29.2576V11.3939ZM55.2993 17.0758H29.2576V22.7576H57.0985C56.7197 20.7689 56.0568 18.875 55.2993 17.0758Z" fill="#F9F9F9"/>
<path d="M29.2576 22.7576V28.4394H57.6667C57.6667 26.4508 57.4773 24.5568 57.0985 22.7576H29.2576ZM3.21593 39.803H55.2993C56.0568 38.0038 56.7197 36.1098 57.0985 34.1212H1.41669C1.79547 36.1098 2.45835 38.0038 3.21593 39.803Z" fill="#ED4C5C"/>
<path d="M6.53034 45.4849H51.9849C53.3106 43.7803 54.447 41.7917 55.2993 39.803H3.21594C4.06822 41.7917 5.20458 43.7803 6.53034 45.4849Z" fill="#F9F9F9"/>
<path d="M6.53033 45.4849C8.14018 47.6629 10.0341 49.5568 12.2122 51.1667H46.3031C48.4811 49.5568 50.375 47.6629 51.9849 45.4849H6.53033Z" fill="#ED4C5C"/>
<path d="M12.2122 51.1667C16.947 54.7651 22.8182 56.8485 29.2576 56.8485C35.697 56.8485 41.5682 54.7651 46.3031 51.1667H12.2122Z" fill="#F9F9F9"/>
<path d="M29.2576 0.030304C13.5379 0.030304 0.848511 12.7197 0.848511 28.4394H29.2576V0.030304Z" fill="#2A5F9E"/>
<path d="M17.7993 22.3788C14.9584 22.3788 12.5909 20.0114 12.5909 17.0757C12.5909 14.1401 14.9584 11.7727 17.7993 11.7727C18.9356 11.7727 19.8826 12.1515 20.7349 12.7197C19.5038 11.2992 17.7993 10.447 15.8106 10.447C12.2122 10.447 9.37125 13.3826 9.37125 17.0757C9.37125 20.7689 12.3069 23.7045 15.8106 23.7045C17.7993 23.7045 19.5038 22.8523 20.7349 21.4318C19.8826 22 18.8409 22.3788 17.7993 22.3788ZM23.5758 15.9394L24.2387 14.2348L24.0493 16.0341L25.375 14.803L24.4281 16.4129L26.1326 15.8447L24.6175 16.7917L26.4167 17.0757L24.6175 17.3598L26.1326 18.3068L24.4281 17.7386L25.375 19.3485L24.0493 18.1174L24.2387 19.9167L23.5758 18.2121L22.9129 19.9167L23.1023 18.1174L21.7765 19.3485L22.7235 17.7386L21.019 18.3068L22.5341 17.3598L20.7349 17.0757L22.5341 16.7917L21.019 15.8447L22.7235 16.4129L21.7765 14.803L23.1023 16.0341L22.9129 14.2348L23.5758 15.9394Z" fill="#FFE62E"/>
</svg>
