<svg width="43" height="43" viewBox="0 0 43 43" fill="none" xmlns="http://www.w3.org/2000/svg">
<mask id="path-1-inside-1_23_373" fill="white">
<path d="M14.2346 1.84947C14.7907 2.48684 15.1907 3.24496 15.4029 4.06375C15.6151 4.88254 15.6337 5.73951 15.4573 6.56675C16.7396 5.91997 18.1332 5.52303 19.5638 5.39711C21.776 5.20391 23.9957 5.67132 25.9422 6.74019C31.0058 9.51958 35.1742 13.6822 37.9608 18.7419C38.6997 20.0768 39.1575 21.5489 39.3062 23.0674C39.4548 24.5859 39.2911 26.1187 38.8251 27.5716C39.6779 27.7669 40.4692 28.1702 41.1284 28.7455L41.1342 28.7498C43.5135 30.8397 43.6282 34.4805 41.4151 36.6765C40.5591 37.5321 39.4426 38.0783 38.2417 38.2288C38.0984 39.3942 37.5823 40.5093 36.6879 41.4052C36.1612 41.9329 35.5315 42.3466 34.838 42.6204C34.1445 42.8942 33.4021 43.0224 32.6569 42.9968C31.9118 42.9713 31.1798 42.7926 30.5067 42.4719C29.8336 42.1512 29.2337 41.6954 28.7444 41.1329V41.13C28.1673 40.4685 27.7634 39.674 27.569 38.8179C26.117 39.2815 24.5858 39.4449 23.0687 39.298C21.5515 39.1511 20.0801 38.6971 18.7439 37.9637C13.689 35.1781 9.52722 31.0166 6.74111 25.9619C5.61378 23.9244 5.15077 21.5857 5.4167 19.2723C5.56818 17.9429 5.95705 16.6515 6.5648 15.4595C5.7377 15.6355 4.88097 15.6166 4.06246 15.4041C3.24396 15.1916 2.48617 14.7915 1.84911 14.2354L1.84337 14.2311C1.28624 13.7407 0.835492 13.1414 0.518935 12.4701C0.202377 11.7988 0.0267262 11.0698 0.00281929 10.328C-0.0210876 9.58617 0.107257 8.84733 0.379933 8.15705C0.65261 7.46676 1.06384 6.83968 1.58824 6.31447C2.43795 5.45236 3.55441 4.90321 4.75593 4.75638C4.89926 3.60107 5.4124 2.47586 6.30824 1.58L6.31254 1.5757C6.83961 1.05397 7.46768 0.645381 8.15824 0.37497C8.8488 0.104558 9.58731 -0.0219766 10.3285 0.00311964C11.0697 0.0282159 11.7979 0.204415 12.4686 0.520917C13.1393 0.837419 13.7383 1.28756 14.2289 1.84374L14.2346 1.84947ZM27.7797 35.6559C27.9183 35.2832 28.0965 34.9258 28.3144 34.5837C27.405 35.2606 26.3003 35.6238 25.1667 35.6186C23.7477 35.6186 22.429 35.0739 21.4257 34.0706C20.4224 33.0672 19.8777 31.7485 19.8777 30.3294C19.8777 28.9104 20.4224 27.5917 21.4257 26.5883L26.5857 21.4281C27.5891 20.4247 28.9078 19.88 30.3268 19.88C31.7314 19.88 33.0645 20.4391 34.0678 21.4281C35.0711 22.4315 35.6158 23.7502 35.6158 25.1692C35.6158 26.3231 35.2575 27.4096 34.5838 28.3155C34.9249 28.0962 35.289 27.917 35.6645 27.778C36.2419 26.5784 36.5239 25.2579 36.4867 23.9271C36.4495 22.5962 36.0944 21.2936 35.451 20.128C32.9271 15.5433 29.1509 11.7714 24.5633 9.25292C23.1137 8.45722 21.4605 8.10952 19.8132 8.25385C17.8559 8.4222 16.0202 9.27362 14.6274 10.6591L10.657 14.6439C9.37697 15.9231 8.54759 17.5838 8.29396 19.3756C8.04032 21.1674 8.37619 22.993 9.25089 24.5773C11.7747 29.1571 15.5448 32.9279 20.1242 35.4524C21.2926 36.092 22.5966 36.4442 23.9281 36.4795C25.2596 36.5149 26.5804 36.2326 27.7812 35.6559M7.58105 5.39424V5.42291C7.54234 6.57535 6.61354 7.57299 5.38803 7.58159C4.72693 7.58874 4.0954 7.85661 3.63075 8.32695L3.62215 8.33698C2.58298 9.37475 2.61881 11.0834 3.74112 12.081C4.20903 12.4838 4.80525 12.7065 5.42265 12.7092C6.04005 12.7118 6.63815 12.4941 7.10948 12.0953C7.42831 11.8112 7.82409 11.6277 8.24697 11.568C8.66985 11.5083 9.10094 11.5751 9.48596 11.7599L11.7549 9.48082C11.5713 9.09618 11.5052 8.66586 11.5652 8.24383C11.6251 7.82181 11.8083 7.42688 12.0918 7.10857C12.4906 6.63723 12.7082 6.03912 12.7056 5.4217C12.703 4.80428 12.4802 4.20804 12.0774 3.74011C11.8454 3.47703 11.5622 3.26401 11.2451 3.11409C10.928 2.96416 10.5837 2.88047 10.2332 2.86813C9.88262 2.85578 9.53324 2.91505 9.20638 3.0423C8.87952 3.16956 8.58204 3.36212 8.33212 3.60824C7.83475 4.10706 7.58678 4.74778 7.57818 5.39424M28.2871 26.2973L26.2948 28.2897C26.2876 28.2968 26.2819 28.3053 26.2782 28.3147C26.2745 28.3241 26.2728 28.3341 26.2733 28.3442C26.2733 28.369 26.2804 28.3872 26.2948 28.3987L30.8671 32.9712C31.2418 33.3445 31.46 33.8467 31.4773 34.3753C31.4946 34.904 31.3097 35.4194 30.9603 35.8164C30.0874 36.8255 30.0817 38.3005 30.9058 39.2508C31.137 39.5166 31.4205 39.7319 31.7385 39.8833C32.0565 40.0347 32.4023 40.1191 32.7543 40.131C33.1064 40.143 33.4571 40.0824 33.7847 39.9529C34.1122 39.8234 34.4096 39.6278 34.6583 39.3784C35.1353 38.908 35.4068 38.268 35.4137 37.5981C35.4209 36.3712 36.4199 35.4423 37.5737 35.4051L37.5881 35.4036H37.6024C38.2474 35.3936 38.891 35.1456 39.3884 34.6482L39.3927 34.6439C40.4146 33.6305 40.3874 31.9148 39.245 30.9071C38.2947 30.0843 36.8227 30.0915 35.8136 30.9644C35.4164 31.3137 34.9009 31.4983 34.3723 31.4807C33.8436 31.4632 33.3416 31.2447 32.9684 30.8698L28.3961 26.2973C28.389 26.2901 28.3805 26.2845 28.3711 26.2808C28.3617 26.277 28.3517 26.2754 28.3416 26.2758C28.3317 26.2756 28.322 26.2773 28.3128 26.281C28.3037 26.2847 28.2954 26.2903 28.2886 26.2973"/>
</mask>
<path d="M14.2346 1.84947C14.7907 2.48684 15.1907 3.24496 15.4029 4.06375C15.6151 4.88254 15.6337 5.73951 15.4573 6.56675C16.7396 5.91997 18.1332 5.52303 19.5638 5.39711C21.776 5.20391 23.9957 5.67132 25.9422 6.74019C31.0058 9.51958 35.1742 13.6822 37.9608 18.7419C38.6997 20.0768 39.1575 21.5489 39.3062 23.0674C39.4548 24.5859 39.2911 26.1187 38.8251 27.5716C39.6779 27.7669 40.4692 28.1702 41.1284 28.7455L41.1342 28.7498C43.5135 30.8397 43.6282 34.4805 41.4151 36.6765C40.5591 37.5321 39.4426 38.0783 38.2417 38.2288C38.0984 39.3942 37.5823 40.5093 36.6879 41.4052C36.1612 41.9329 35.5315 42.3466 34.838 42.6204C34.1445 42.8942 33.4021 43.0224 32.6569 42.9968C31.9118 42.9713 31.1798 42.7926 30.5067 42.4719C29.8336 42.1512 29.2337 41.6954 28.7444 41.1329V41.13C28.1673 40.4685 27.7634 39.674 27.569 38.8179C26.117 39.2815 24.5858 39.4449 23.0687 39.298C21.5515 39.1511 20.0801 38.6971 18.7439 37.9637C13.689 35.1781 9.52722 31.0166 6.74111 25.9619C5.61378 23.9244 5.15077 21.5857 5.4167 19.2723C5.56818 17.9429 5.95705 16.6515 6.5648 15.4595C5.7377 15.6355 4.88097 15.6166 4.06246 15.4041C3.24396 15.1916 2.48617 14.7915 1.84911 14.2354L1.84337 14.2311C1.28624 13.7407 0.835492 13.1414 0.518935 12.4701C0.202377 11.7988 0.0267262 11.0698 0.00281929 10.328C-0.0210876 9.58617 0.107257 8.84733 0.379933 8.15705C0.65261 7.46676 1.06384 6.83968 1.58824 6.31447C2.43795 5.45236 3.55441 4.90321 4.75593 4.75638C4.89926 3.60107 5.4124 2.47586 6.30824 1.58L6.31254 1.5757C6.83961 1.05397 7.46768 0.645381 8.15824 0.37497C8.8488 0.104558 9.58731 -0.0219766 10.3285 0.00311964C11.0697 0.0282159 11.7979 0.204415 12.4686 0.520917C13.1393 0.837419 13.7383 1.28756 14.2289 1.84374L14.2346 1.84947ZM27.7797 35.6559C27.9183 35.2832 28.0965 34.9258 28.3144 34.5837C27.405 35.2606 26.3003 35.6238 25.1667 35.6186C23.7477 35.6186 22.429 35.0739 21.4257 34.0706C20.4224 33.0672 19.8777 31.7485 19.8777 30.3294C19.8777 28.9104 20.4224 27.5917 21.4257 26.5883L26.5857 21.4281C27.5891 20.4247 28.9078 19.88 30.3268 19.88C31.7314 19.88 33.0645 20.4391 34.0678 21.4281C35.0711 22.4315 35.6158 23.7502 35.6158 25.1692C35.6158 26.3231 35.2575 27.4096 34.5838 28.3155C34.9249 28.0962 35.289 27.917 35.6645 27.778C36.2419 26.5784 36.5239 25.2579 36.4867 23.9271C36.4495 22.5962 36.0944 21.2936 35.451 20.128C32.9271 15.5433 29.1509 11.7714 24.5633 9.25292C23.1137 8.45722 21.4605 8.10952 19.8132 8.25385C17.8559 8.4222 16.0202 9.27362 14.6274 10.6591L10.657 14.6439C9.37697 15.9231 8.54759 17.5838 8.29396 19.3756C8.04032 21.1674 8.37619 22.993 9.25089 24.5773C11.7747 29.1571 15.5448 32.9279 20.1242 35.4524C21.2926 36.092 22.5966 36.4442 23.9281 36.4795C25.2596 36.5149 26.5804 36.2326 27.7812 35.6559M7.58105 5.39424V5.42291C7.54234 6.57535 6.61354 7.57299 5.38803 7.58159C4.72693 7.58874 4.0954 7.85661 3.63075 8.32695L3.62215 8.33698C2.58298 9.37475 2.61881 11.0834 3.74112 12.081C4.20903 12.4838 4.80525 12.7065 5.42265 12.7092C6.04005 12.7118 6.63815 12.4941 7.10948 12.0953C7.42831 11.8112 7.82409 11.6277 8.24697 11.568C8.66985 11.5083 9.10094 11.5751 9.48596 11.7599L11.7549 9.48082C11.5713 9.09618 11.5052 8.66586 11.5652 8.24383C11.6251 7.82181 11.8083 7.42688 12.0918 7.10857C12.4906 6.63723 12.7082 6.03912 12.7056 5.4217C12.703 4.80428 12.4802 4.20804 12.0774 3.74011C11.8454 3.47703 11.5622 3.26401 11.2451 3.11409C10.928 2.96416 10.5837 2.88047 10.2332 2.86813C9.88262 2.85578 9.53324 2.91505 9.20638 3.0423C8.87952 3.16956 8.58204 3.36212 8.33212 3.60824C7.83475 4.10706 7.58678 4.74778 7.57818 5.39424M28.2871 26.2973L26.2948 28.2897C26.2876 28.2968 26.2819 28.3053 26.2782 28.3147C26.2745 28.3241 26.2728 28.3341 26.2733 28.3442C26.2733 28.369 26.2804 28.3872 26.2948 28.3987L30.8671 32.9712C31.2418 33.3445 31.46 33.8467 31.4773 34.3753C31.4946 34.904 31.3097 35.4194 30.9603 35.8164C30.0874 36.8255 30.0817 38.3005 30.9058 39.2508C31.137 39.5166 31.4205 39.7319 31.7385 39.8833C32.0565 40.0347 32.4023 40.1191 32.7543 40.131C33.1064 40.143 33.4571 40.0824 33.7847 39.9529C34.1122 39.8234 34.4096 39.6278 34.6583 39.3784C35.1353 38.908 35.4068 38.268 35.4137 37.5981C35.4209 36.3712 36.4199 35.4423 37.5737 35.4051L37.5881 35.4036H37.6024C38.2474 35.3936 38.891 35.1456 39.3884 34.6482L39.3927 34.6439C40.4146 33.6305 40.3874 31.9148 39.245 30.9071C38.2947 30.0843 36.8227 30.0915 35.8136 30.9644C35.4164 31.3137 34.9009 31.4983 34.3723 31.4807C33.8436 31.4632 33.3416 31.2447 32.9684 30.8698L28.3961 26.2973C28.389 26.2901 28.3805 26.2845 28.3711 26.2808C28.3617 26.277 28.3517 26.2754 28.3416 26.2758C28.3317 26.2756 28.322 26.2773 28.3128 26.281C28.3037 26.2847 28.2954 26.2903 28.2886 26.2973" fill="#9A0A10"/>
<path d="M14.2346 1.84947L23.6538 -6.36818L23.3739 -6.68899L23.0728 -6.99002L14.2346 1.84947ZM15.4573 6.56675L3.23231 3.95896L-2.21151 29.4789L21.0866 17.7274L15.4573 6.56675ZM19.5638 5.39711L18.4763 -7.0555L18.4677 -7.05475L19.5638 5.39711ZM25.9422 6.74019L19.9254 17.6969L19.9275 17.698L25.9422 6.74019ZM37.9608 18.7419L27.0114 24.7721L27.0179 24.7838L27.0244 24.7955L37.9608 18.7419ZM38.8251 27.5716L26.9224 23.7537L22.7642 36.7172L36.0347 39.7562L38.8251 27.5716ZM41.1284 28.7455L32.909 38.1631L33.2589 38.4685L33.6306 38.7472L41.1284 28.7455ZM41.1342 28.7498L49.3832 19.3582L49.0194 19.0387L48.632 18.7482L41.1342 28.7498ZM41.4151 36.6765L32.6107 27.8034L32.5942 27.8197L32.5778 27.8361L41.4151 36.6765ZM38.2417 38.2288L36.6874 25.8258L27.0241 27.0368L25.8352 36.7029L38.2417 38.2288ZM36.6879 41.4052L27.8419 32.5736L27.8406 32.5749L36.6879 41.4052ZM28.7444 41.1329H16.2444V45.8087L19.3131 49.3366L28.7444 41.1329ZM28.7444 41.13H41.2444V36.444L38.1639 32.9128L28.7444 41.13ZM27.569 38.8179L39.7587 36.05L36.7426 22.7676L23.7673 26.9101L27.569 38.8179ZM18.7439 37.9637L12.711 48.9114L12.7199 48.9163L12.7288 48.9212L18.7439 37.9637ZM6.74111 25.9619L17.6883 19.9279L17.6835 19.9192L17.6786 19.9104L6.74111 25.9619ZM5.4167 19.2723L17.8349 20.6998L17.8363 20.6875L5.4167 19.2723ZM6.5648 15.4595L17.7008 21.1374L29.6132 -2.22625L3.96254 3.23335L6.5648 15.4595ZM1.84911 14.2354L10.0694 4.81856L9.71966 4.51323L9.3482 4.23469L1.84911 14.2354ZM1.84337 14.2311L-6.41513 23.6144L-6.04752 23.938L-5.65572 24.2317L1.84337 14.2311ZM1.58824 6.31447L10.4338 15.1466L10.4624 15.1179L10.4909 15.089L1.58824 6.31447ZM4.75593 4.75638L6.27213 17.1641L15.9593 15.9803L17.1608 6.2954L4.75593 4.75638ZM6.30824 1.58L15.1472 10.4187L15.1476 10.4183L6.30824 1.58ZM6.31254 1.5757L-2.4811 -7.30811L-2.504 -7.28544L-2.52678 -7.26265L6.31254 1.5757ZM14.2289 1.84374L4.8545 10.1124L5.11366 10.4062L5.39071 10.6832L14.2289 1.84374ZM28.3144 34.5837L38.8578 41.2983L20.8507 24.5566L28.3144 34.5837ZM25.1667 35.6186L25.2238 23.1188L25.1953 23.1186H25.1667V35.6186ZM21.4257 26.5883L12.5867 17.7496L12.5867 17.7496L21.4257 26.5883ZM26.5857 21.4281L35.4247 30.2668H35.4247L26.5857 21.4281ZM34.0678 21.4281L42.9068 12.5894L42.875 12.5576L42.8429 12.526L34.0678 21.4281ZM34.5838 28.3155L24.5533 20.8564L41.3434 38.8302L34.5838 28.3155ZM35.6645 27.778L40.0046 39.5004L44.7385 37.7477L46.9278 33.1992L35.6645 27.778ZM35.451 20.128L24.5006 26.1562L24.5041 26.1627L24.5077 26.1692L35.451 20.128ZM24.5633 9.25292L30.5787 -1.70448L30.578 -1.70489L24.5633 9.25292ZM19.8132 8.25385L20.8844 20.7079L20.8943 20.707L20.9042 20.7061L19.8132 8.25385ZM14.6274 10.6591L5.81203 1.79679L5.79221 1.81651L5.77248 1.83631L14.6274 10.6591ZM10.657 14.6439L19.4929 23.4857L19.5024 23.4762L19.5119 23.4666L10.657 14.6439ZM9.25089 24.5773L20.1987 18.5443L20.1937 18.5353L9.25089 24.5773ZM20.1242 35.4524L14.0896 46.3992L14.1055 46.4079L14.1213 46.4166L20.1242 35.4524ZM7.58105 5.42291L20.074 5.84243L20.081 5.63273V5.42291H7.58105ZM5.38803 7.58159L5.30031 -4.9181L5.27656 -4.91794L5.25281 -4.91768L5.38803 7.58159ZM3.63075 8.32695L-5.26174 -0.457899L-5.57238 -0.143455L-5.86003 0.192146L3.63075 8.32695ZM3.62215 8.33698L12.455 17.1818L12.7977 16.8395L13.1129 16.4718L3.62215 8.33698ZM3.74112 12.081L-4.56357 21.4235L-4.48937 21.4894L-4.41412 21.5542L3.74112 12.081ZM7.10948 12.0953L15.1838 21.6376L15.3062 21.534L15.426 21.4273L7.10948 12.0953ZM9.48596 11.7599L4.07701 23.029L12.0807 26.8707L18.3444 20.5791L9.48596 11.7599ZM11.7549 9.48082L20.6134 18.3L26.8345 12.0512L23.0348 4.09434L11.7549 9.48082ZM12.0918 7.10857L21.4264 15.4221L21.5319 15.3037L21.6343 15.1826L12.0918 7.10857ZM12.0774 3.74011L21.5509 -4.41485L21.5022 -4.47143L21.4528 -4.52743L12.0774 3.74011ZM8.33212 3.60824L-0.438595 -5.2982L-0.479262 -5.25815L-0.519561 -5.21773L8.33212 3.60824ZM26.2948 28.2897L35.0323 37.2287L35.0833 37.1789L35.1337 37.1284L26.2948 28.2897ZM26.2733 28.3442H38.7733V28.0636L38.7607 27.7833L26.2733 28.3442ZM26.2948 28.3987L35.1337 19.56L34.6442 19.0704L34.1036 18.6379L26.2948 28.3987ZM30.8671 32.9712L22.0282 41.8099L22.0358 41.8175L22.0435 41.8252L30.8671 32.9712ZM30.9603 35.8164L21.5763 27.5586L21.5413 27.5985L21.5065 27.6386L30.9603 35.8164ZM30.9058 39.2508L21.4624 47.4406L21.4688 47.4479L21.4752 47.4553L30.9058 39.2508ZM31.7385 39.8833L37.1125 28.5975L31.7385 39.8833ZM34.6583 39.3784L25.8806 30.4789L25.8435 30.5155L25.8066 30.5525L34.6583 39.3784ZM35.4137 37.5981L47.913 37.7266L47.9133 37.6989L47.9135 37.6711L35.4137 37.5981ZM37.5737 35.4051L37.9773 47.8985L38.3992 47.8849L38.8192 47.8429L37.5737 35.4051ZM37.5881 35.4036V22.9036H36.9638L36.3426 22.9658L37.5881 35.4036ZM37.6024 35.4036V47.9036H37.6996L37.7968 47.9021L37.6024 35.4036ZM39.3927 34.6439L30.5911 25.768L30.5724 25.7866L30.5537 25.8052L39.3927 34.6439ZM39.245 30.9071L47.5139 21.5329L47.4706 21.4947L47.4269 21.4569L39.245 30.9071ZM35.8136 30.9644L27.6355 21.5109L27.5977 21.5436L27.5601 21.5767L35.8136 30.9644ZM32.9684 30.8698L41.8273 22.051L41.8173 22.0411L41.8074 22.0311L32.9684 30.8698ZM28.3961 26.2973L19.4568 35.0346L19.5067 35.0856L19.5571 35.136L28.3961 26.2973ZM28.3416 26.2758L28.0224 38.7717L28.4626 38.783L28.9025 38.7632L28.3416 26.2758ZM4.81549 10.0671C4.09543 9.24179 3.5775 8.26013 3.30271 7.19992L27.5031 0.927578C26.8039 -1.77021 25.486 -4.26811 23.6538 -6.36818L4.81549 10.0671ZM3.30271 7.19992C3.02793 6.13971 3.00383 5.03009 3.23231 3.95896L27.6822 9.17454C28.2636 6.44894 28.2023 3.62537 27.5031 0.927578L3.30271 7.19992ZM21.0866 17.7274C20.9534 17.7946 20.8085 17.8359 20.6598 17.849L18.4677 -7.05475C15.4578 -6.7898 12.5257 -5.95467 9.82789 -4.5939L21.0866 17.7274ZM20.6513 17.8497C20.3995 17.8717 20.1469 17.8185 19.9254 17.6969L31.9589 -4.21649C27.8445 -6.47585 23.1524 -7.46387 18.4763 -7.0555L20.6513 17.8497ZM19.9275 17.698C22.912 19.3362 25.3689 21.7897 27.0114 24.7721L48.9101 12.7118C44.9794 5.57467 39.0995 -0.297016 31.9569 -4.2176L19.9275 17.698ZM27.0244 24.7955C26.9372 24.638 26.8832 24.4643 26.8656 24.2851L51.7467 21.8496C51.4319 18.6334 50.4621 15.5157 48.8971 12.6883L27.0244 24.7955ZM26.8656 24.2851C26.8481 24.106 26.8674 23.9251 26.9224 23.7537L50.7277 31.3895C51.7148 28.3124 52.0615 25.0658 51.7467 21.8496L26.8656 24.2851ZM36.0347 39.7562C34.8773 39.4911 33.8035 38.9438 32.909 38.1631L49.3479 19.328C47.1349 17.3966 44.4785 16.0427 41.6154 15.387L36.0347 39.7562ZM33.6306 38.7472L33.6363 38.7514L48.632 18.7482L48.6263 18.7439L33.6306 38.7472ZM32.8851 38.1415C29.894 35.5142 29.6184 30.7725 32.6107 27.8034L50.2195 45.5496C57.638 38.1886 57.1331 26.1652 49.3832 19.3582L32.8851 38.1415ZM32.5778 27.8361C33.6862 26.7281 35.1321 26.0207 36.6874 25.8258L39.796 50.6318C43.753 50.1359 47.4321 48.3362 50.2524 45.5168L32.5778 27.8361ZM25.8352 36.7029C26.0229 35.1767 26.718 33.6993 27.8419 32.5736L45.534 50.2368C48.4467 47.3194 50.1738 43.6117 50.6482 39.7548L25.8352 36.7029ZM27.8406 32.5749C28.5259 31.8883 29.3451 31.3501 30.2474 30.9939L39.4286 54.247C41.7179 53.3431 43.7966 51.9776 45.5353 50.2356L27.8406 32.5749ZM30.2474 30.9939C31.1497 30.6376 32.1157 30.4709 33.0852 30.5041L32.2286 55.4895C34.6885 55.5738 37.1393 55.1508 39.4286 54.247L30.2474 30.9939ZM33.0852 30.5041C34.0547 30.5374 35.007 30.7699 35.8828 31.1871L25.1306 53.7568C27.3526 54.8153 29.7688 55.4051 32.2286 55.4895L33.0852 30.5041ZM35.8828 31.1871C36.7586 31.6043 37.5391 32.1973 38.1757 32.9292L19.3131 49.3366C20.9283 51.1936 22.9086 52.6982 25.1306 53.7568L35.8828 31.1871ZM41.2444 41.1329V41.13H16.2444V41.1329H41.2444ZM38.1639 32.9128C38.947 33.8104 39.4949 34.8884 39.7587 36.05L15.3793 41.5859C16.0319 44.4596 17.3876 47.1265 19.3248 49.3472L38.1639 32.9128ZM23.7673 26.9101C23.9305 26.858 24.1026 26.8396 24.2731 26.8562L21.8642 51.7398C25.0691 52.0501 28.3035 51.7051 31.3707 50.7258L23.7673 26.9101ZM24.2731 26.8562C24.4436 26.8727 24.6089 26.9237 24.7591 27.0061L12.7288 48.9212C15.5512 50.4706 18.6594 51.4296 21.8642 51.7398L24.2731 26.8562ZM24.7769 27.0159C21.7916 25.3708 19.3337 22.9132 17.6883 19.9279L-4.20609 31.9959C-0.279314 39.1201 5.58641 44.9853 12.711 48.9114L24.7769 27.0159ZM17.6786 19.9104C17.8117 20.1509 17.8663 20.4268 17.8349 20.6998L-7.00153 17.8448C-7.56476 22.7445 -6.5841 27.6979 -4.19642 32.0134L17.6786 19.9104ZM17.8363 20.6875C17.8185 20.8443 17.7726 20.9967 17.7008 21.1374L-4.57124 9.78158C-5.85848 12.3062 -6.6821 15.0415 -7.00294 17.8571L17.8363 20.6875ZM3.96254 3.23335C5.03366 3.00537 6.14316 3.02993 7.20315 3.30508L0.921773 27.5031C3.61878 28.2032 6.44174 28.2657 9.16707 27.6856L3.96254 3.23335ZM7.20315 3.30508C8.26315 3.58024 9.24448 4.09842 10.0694 4.81856L-6.37122 23.6522C-4.27214 25.4845 -1.77523 26.803 0.921773 27.5031L7.20315 3.30508ZM9.3482 4.23469L9.34247 4.23039L-5.65572 24.2317L-5.64999 24.236L9.3482 4.23469ZM10.1019 4.84772C10.8267 5.48567 11.4131 6.26534 11.8249 7.13864L-10.787 17.8016C-9.74212 20.0175 -8.25422 21.9958 -6.41513 23.6144L10.1019 4.84772ZM11.8249 7.13864C12.2367 8.01193 12.4652 8.96033 12.4963 9.92534L-12.4907 10.7306C-12.4118 13.1792 -11.832 15.5857 -10.787 17.8016L11.8249 7.13864ZM12.4963 9.92534C12.5274 10.8903 12.3605 11.8515 12.0057 12.7495L-11.2459 3.56461C-12.146 5.84318 -12.5696 8.28201 -12.4907 10.7306L12.4963 9.92534ZM12.0057 12.7495C11.651 13.6475 11.116 14.4633 10.4338 15.1466L-7.25733 -2.51762C-8.98837 -0.783945 -10.3458 1.28604 -11.2459 3.56461L12.0057 12.7495ZM10.4909 15.089C9.35929 16.2371 7.87239 16.9685 6.27213 17.1641L3.23973 -7.65132C-0.763569 -7.16213 -4.4834 -5.33242 -7.31441 -2.46008L10.4909 15.089ZM17.1608 6.2954C16.9762 7.7831 16.303 9.26284 15.1472 10.4187L-2.53073 -7.2587C-5.47823 -4.31111 -7.17773 -0.580958 -7.64897 3.21736L17.1608 6.2954ZM15.1476 10.4183L15.1519 10.414L-2.52678 -7.26265L-2.53108 -7.25835L15.1476 10.4183ZM15.1062 10.4595C14.4236 11.1351 13.6103 11.6642 12.716 12.0144L3.60044 -11.2645C1.32504 -10.3735 -0.744415 -9.02716 -2.4811 -7.30811L15.1062 10.4595ZM12.716 12.0144C11.8218 12.3646 10.8654 12.5285 9.90549 12.496L10.7515 -12.4897C8.30925 -12.5724 5.87585 -12.1555 3.60044 -11.2645L12.716 12.0144ZM9.90549 12.496C8.94563 12.4635 8.00252 12.2353 7.13397 11.8254L17.8033 -10.7836C15.5934 -11.8264 13.1937 -12.407 10.7515 -12.4897L9.90549 12.496ZM7.13397 11.8254C6.26543 11.4155 5.48976 10.8326 4.8545 10.1124L23.6033 -6.42493C21.9869 -8.2575 20.0132 -9.7407 17.8033 -10.7836L7.13397 11.8254ZM5.39071 10.6832L5.39645 10.689L23.0728 -6.99002L23.0671 -6.99575L5.39071 10.6832ZM39.4962 40.0119C39.3218 40.481 39.1034 40.9127 38.8578 41.2983L17.7709 27.8691C17.0896 28.9389 16.5148 30.0854 16.0633 31.2999L39.4962 40.0119ZM20.8507 24.5566C22.1141 23.6162 23.6488 23.1116 25.2238 23.1188L25.1097 48.1185C28.9519 48.136 32.6959 46.9051 35.778 44.6109L20.8507 24.5566ZM25.1667 23.1186C27.0536 23.1186 28.9172 23.8843 30.2647 25.2319L12.5867 42.9093C15.9409 46.2636 20.4419 48.1186 25.1667 48.1186V23.1186ZM30.2647 25.2319C31.6122 26.5794 32.3777 28.4429 32.3777 30.3294H7.3777C7.3777 35.0541 9.23254 39.555 12.5867 42.9093L30.2647 25.2319ZM32.3777 30.3294C32.3777 32.216 31.6122 34.0794 30.2647 35.427L12.5867 17.7496C9.23253 21.1039 7.3777 25.6048 7.3777 30.3294H32.3777ZM30.2647 35.427L35.4247 30.2668L17.7468 12.5894L12.5867 17.7496L30.2647 35.427ZM35.4247 30.2668C34.0772 31.6144 32.2136 32.38 30.3268 32.38V7.38004C25.6019 7.38004 21.101 9.23508 17.7468 12.5894L35.4247 30.2668ZM30.3268 32.38C28.3669 32.38 26.5702 31.5896 25.2926 30.3302L42.8429 12.526C39.5587 9.28858 35.096 7.38004 30.3268 7.38004V32.38ZM25.2288 30.2668C23.8813 28.9192 23.1158 27.0558 23.1158 25.1692H48.1158C48.1158 20.4446 46.261 15.9437 42.9068 12.5894L25.2288 30.2668ZM23.1158 25.1692C23.1158 23.6772 23.5989 22.1397 24.5533 20.8564L44.6143 35.7747C46.916 32.6796 48.1158 28.969 48.1158 25.1692H23.1158ZM41.3434 38.8302C40.8894 39.1221 40.4373 39.3402 40.0046 39.5004L31.3244 16.0556C30.1407 16.4939 28.9605 17.0704 27.8242 17.8009L41.3434 38.8302ZM46.9278 33.1992C48.3704 30.202 49.0747 26.9032 48.9818 23.5782L23.9916 24.2759C23.9731 23.6127 24.1135 22.9547 24.4013 22.3568L46.9278 33.1992ZM48.9818 23.5782C48.889 20.2533 48.0018 16.9989 46.3942 14.0869L24.5077 26.1692C24.1871 25.5883 24.0101 24.9391 23.9916 24.2759L48.9818 23.5782ZM46.4014 14.0999C42.7336 7.43715 37.2457 1.95559 30.5787 -1.70448L18.5479 20.2103C21.056 21.5872 23.1206 23.6495 24.5006 26.1562L46.4014 14.0999ZM30.578 -1.70489C26.9599 -3.69086 22.8338 -4.55868 18.7222 -4.19846L20.9042 20.7061C20.0872 20.7777 19.2674 20.6053 18.5486 20.2107L30.578 -1.70489ZM18.742 -4.20017C13.8618 -3.7804 9.28473 -1.65751 5.81203 1.79679L23.4427 19.5213C22.7556 20.2048 21.8501 20.6248 20.8844 20.7079L18.742 -4.20017ZM5.77248 1.83631L1.80212 5.82112L19.5119 23.4666L23.4822 19.4818L5.77248 1.83631ZM1.82111 5.8021C-1.37692 8.998 -3.44899 13.1471 -4.08266 17.6236L20.6706 21.1275C20.5442 22.0205 20.1309 22.8481 19.4929 23.4857L1.82111 5.8021ZM-4.08266 17.6236C-4.71632 22.1001 -3.87723 26.6613 -1.6919 30.6192L20.1937 18.5353C20.6296 19.3248 20.797 20.2346 20.6706 21.1275L-4.08266 17.6236ZM-1.69689 30.6102C1.96726 37.2594 7.44093 42.734 14.0896 46.3992L26.1589 24.5055C23.6487 23.1218 21.5821 21.0548 20.1987 18.5443L-1.69689 30.6102ZM14.1213 46.4166C17.0315 48.0099 20.2793 48.887 23.5959 48.9751L24.2603 23.984C24.9138 24.0013 25.5537 24.1742 26.1271 24.4881L14.1213 46.4166ZM23.5959 48.9751C26.9125 49.0633 30.2024 48.36 33.1931 46.9236L22.3692 24.3882C22.9585 24.1052 23.6067 23.9666 24.2603 23.984L23.5959 48.9751ZM-4.91895 5.39424V5.42291H20.081V5.39424H-4.91895ZM-4.91191 5.00338C-4.74023 -0.108991 -0.6097 -4.87663 5.30031 -4.9181L5.47575 20.0813C13.8368 20.0226 19.8249 13.2597 20.074 5.84243L-4.91191 5.00338ZM5.25281 -4.91768C1.29712 -4.87489 -2.48164 -3.27206 -5.26174 -0.457899L12.5232 17.1118C10.6724 18.9853 8.15675 20.0524 5.52325 20.0809L5.25281 -4.91768ZM-5.86003 0.192146L-5.86863 0.202179L13.1129 16.4718L13.1215 16.4618L-5.86003 0.192146ZM-5.21072 -0.507817C-11.3301 5.60328 -11.0755 15.6349 -4.56357 21.4235L12.0458 2.7385C16.3132 6.53181 16.496 13.1462 12.455 17.1818L-5.21072 -0.507817ZM-4.41412 21.5542C-1.69174 23.8978 1.77724 25.1938 5.36946 25.209L5.47585 0.209272C7.83327 0.219304 10.1098 1.06976 11.8964 2.60776L-4.41412 21.5542ZM5.36946 25.209C8.9617 25.2243 12.4416 23.958 15.1838 21.6376L-0.96485 2.55303C0.834725 1.0303 3.11841 0.19924 5.47585 0.209272L5.36946 25.209ZM15.426 21.4273C13.9034 22.7842 12.0134 23.6603 9.99388 23.9454L6.50005 -0.8093C3.63477 -0.404899 0.953225 0.838166 -1.20702 2.76334L15.426 21.4273ZM9.99388 23.9454C7.97435 24.2304 5.91566 23.9116 4.07701 23.029L14.8949 0.490779C12.2862 -0.761338 9.36535 -1.2137 6.50005 -0.8093L9.99388 23.9454ZM18.3444 20.5791L20.6134 18.3L2.89649 0.661645L0.627512 2.94073L18.3444 20.5791ZM23.0348 4.09434C23.9119 5.93108 24.2272 7.9859 23.941 10.0011L-0.810703 6.48659C-1.21668 9.34582 -0.769403 12.2613 0.475055 14.8673L23.0348 4.09434ZM23.941 10.0011C23.6549 12.0163 22.7801 13.9021 21.4264 15.4221L2.75719 -1.20501C0.836462 0.951614 -0.404721 3.62735 -0.810703 6.48659L23.941 10.0011ZM21.6343 15.1826C23.9546 12.4404 25.2208 8.96055 25.2055 5.36851L0.205709 5.47489C0.195679 3.11768 1.0266 0.834113 2.54925 -0.965469L21.6343 15.1826ZM25.2055 5.36851C25.1902 1.77646 23.8944 -1.69244 21.5509 -4.41485L2.60397 11.8951C1.06607 10.1085 0.215739 7.8321 0.205709 5.47489L25.2055 5.36851ZM21.4528 -4.52743C20.0968 -6.06511 18.4415 -7.31016 16.5881 -8.18648L5.90219 14.4147C4.68294 13.8382 3.59405 13.0192 2.70206 12.0077L21.4528 -4.52743ZM16.5881 -8.18648C14.7346 -9.0628 12.7219 -9.55199 10.673 -9.62413L9.79331 15.3604C8.44545 15.3129 7.12144 14.9911 5.90219 14.4147L16.5881 -8.18648ZM10.673 -9.62413C8.62407 -9.69628 6.58195 -9.34986 4.67144 -8.60606L13.7413 14.6907C12.4845 15.18 11.1412 15.4078 9.79331 15.3604L10.673 -9.62413ZM4.67144 -8.60606C2.76094 -7.86226 1.02218 -6.73671 -0.438595 -5.2982L17.1028 12.5147C16.1419 13.461 14.9981 14.2014 13.7413 14.6907L4.67144 -8.60606ZM-0.519561 -5.21773C-3.40171 -2.32719 -4.87057 1.45883 -4.92072 5.22796L20.0771 5.56052C20.0441 8.03673 19.0712 10.5413 17.1838 12.4342L-0.519561 -5.21773ZM19.4481 17.4586L17.4558 19.451L35.1337 37.1284L37.1261 35.136L19.4481 17.4586ZM17.5572 19.3507C16.2913 20.5881 15.3011 22.0788 14.6512 23.7252L37.9052 32.9041C37.2627 34.5317 36.2838 36.0054 35.0323 37.2287L17.5572 19.3507ZM14.6512 23.7252C14.0009 25.3727 13.7065 27.1379 13.7859 28.9051L38.7607 27.7833C38.8391 29.5303 38.5481 31.2754 37.9052 32.9041L14.6512 23.7252ZM13.7733 28.3442C13.7733 30.7344 14.5445 35.0061 18.4859 38.1594L34.1036 18.6379C38.0164 21.7682 38.7733 26.0037 38.7733 28.3442H13.7733ZM17.4558 37.2374L22.0282 41.8099L39.7061 24.1325L35.1337 19.56L17.4558 37.2374ZM22.0435 41.8252C20.1649 39.953 19.0708 37.4351 18.984 34.7844L43.9706 33.9663C43.8492 30.2583 42.3187 26.736 39.6908 24.1172L22.0435 41.8252ZM18.984 34.7844C18.8972 32.1338 19.8242 29.5497 21.5763 27.5586L40.3443 44.0742C42.7952 41.289 44.092 37.6742 43.9706 33.9663L18.984 34.7844ZM21.5065 27.6386C16.7554 33.1311 16.3819 41.5823 21.4624 47.4406L40.3493 31.0611C43.7815 35.0187 43.4194 40.52 40.4141 43.9942L21.5065 27.6386ZM21.4752 47.4553C22.8327 49.0157 24.497 50.2799 26.3645 51.1691L37.1125 28.5975C38.3439 29.1839 39.4414 30.0175 40.3365 31.0464L21.4752 47.4553ZM26.3645 51.1691C28.2319 52.0584 30.2625 52.5535 32.3296 52.6238L33.179 27.6383C34.5421 27.6846 35.8811 28.0111 37.1125 28.5975L26.3645 51.1691ZM32.3296 52.6238C34.3968 52.6941 36.4563 52.338 38.3798 51.5776L29.1895 28.3281C30.4579 27.8267 31.8159 27.5919 33.179 27.6383L32.3296 52.6238ZM38.3798 51.5776C40.3033 50.8173 42.0496 49.669 43.51 48.2043L25.8066 30.5525C26.7696 29.5867 27.9212 28.8295 29.1895 28.3281L38.3798 51.5776ZM43.4361 48.2779C46.2629 45.4898 47.8722 41.6968 47.913 37.7266L22.9144 37.4697C22.9414 34.8393 24.0076 32.3262 25.8806 30.4789L43.4361 48.2779ZM47.9135 37.6711C47.8789 43.6006 43.0911 47.7334 37.9773 47.8985L37.1702 22.9116C29.7487 23.1513 22.9629 29.1417 22.9139 37.5251L47.9135 37.6711ZM38.8192 47.8429L38.8336 47.8414L36.3426 22.9658L36.3283 22.9673L38.8192 47.8429ZM37.5881 47.9036H37.6024V22.9036H37.5881V47.9036ZM37.7968 47.9021C41.5289 47.8441 45.3223 46.392 48.2273 43.4869L30.5494 25.8095C32.4597 23.8992 34.9659 22.9431 37.408 22.9051L37.7968 47.9021ZM48.2273 43.4869L48.2316 43.4826L30.5537 25.8052L30.5494 25.8095L48.2273 43.4869ZM48.1942 43.5199C54.4012 37.365 54.0269 27.2779 47.5139 21.5329L30.9762 40.2813C26.7479 36.5516 26.4281 29.8961 30.5911 25.768L48.1942 43.5199ZM47.4269 21.4569C41.5605 16.3778 33.1172 16.7688 27.6355 21.5109L43.9917 40.4179C40.5282 43.4142 35.0289 43.7908 31.0631 40.3573L47.4269 21.4569ZM27.5601 21.5767C29.552 19.8254 32.1367 18.8995 34.7877 18.9876L33.9569 43.9738C37.6651 44.0971 41.2807 42.8019 44.0671 40.3522L27.5601 21.5767ZM34.7877 18.9876C37.4386 19.0758 39.9561 20.1714 41.8273 22.051L24.1096 39.6886C26.7271 42.318 30.2487 43.8505 33.9569 43.9738L34.7877 18.9876ZM41.8074 22.0311L37.235 17.4586L19.5571 35.136L24.1295 39.7085L41.8074 22.0311ZM37.3353 17.56C36.0989 16.295 34.6085 15.3043 32.9608 14.6539L23.7814 37.9076C22.1525 37.2646 20.6791 36.2852 19.4568 35.0346L37.3353 17.56ZM32.9608 14.6539C31.3151 14.0042 29.5499 13.7089 27.7807 13.7884L28.9025 38.7632C27.1535 38.8418 25.4084 38.5499 23.7814 37.9076L32.9608 14.6539ZM28.6608 13.7799C26.9339 13.7358 25.2167 14.048 23.6164 14.6969L33.0093 37.8652C31.4272 38.5066 29.7296 38.8154 28.0224 38.7717L28.6608 13.7799ZM23.6164 14.6969C22.0143 15.3464 20.5649 16.3187 19.3576 17.5515L37.2195 35.0431C36.026 36.2618 34.5932 37.2231 33.0093 37.8652L23.6164 14.6969Z" fill="#9A0A10" mask="url(#path-1-inside-1_23_373)"/>
</svg>
