<svg width="142" height="142" viewBox="0 0 142 142" fill="none" xmlns="http://www.w3.org/2000/svg">
<rect width="142" height="142" rx="12" fill="#E8E8E8"/>
<path fill-rule="evenodd" clip-rule="evenodd" d="M62.112 107H79.888C92.372 107 98.616 107 103.1 104.06C105.035 102.793 106.702 101.156 108.004 99.244C111 94.844 111 88.7121 111 76.4561C111 64.2001 111 58.0681 108.004 53.6681C106.702 51.7561 105.035 50.1196 103.1 48.8521C100.22 46.9602 96.612 46.2842 91.088 46.0442C88.452 46.0442 86.184 44.0842 85.668 41.5442C85.2737 39.6836 84.2491 38.0163 82.7674 36.824C81.2857 35.6316 79.4378 34.9874 77.536 35.0002H64.464C60.512 35.0002 57.108 37.7402 56.332 41.5442C55.816 44.0842 53.548 46.0442 50.912 46.0442C45.392 46.2842 41.784 46.9642 38.9 48.8521C36.9661 50.12 35.3011 51.7565 34 53.6681C31 58.0681 31 64.1961 31 76.4561C31 88.716 31 94.84 33.996 99.244C35.292 101.148 36.956 102.784 38.9 104.06C43.384 107 49.628 107 62.112 107ZM71 60.0921C61.796 60.0921 54.332 67.4161 54.332 76.4521C54.332 85.4881 61.8 92.824 71 92.824C80.2 92.824 87.668 85.4961 87.668 76.4601C87.668 67.4241 80.2 60.0921 71 60.0921ZM71 66.6361C65.48 66.6361 61 71.0321 61 76.4561C61 81.8761 65.48 86.2721 71 86.2721C76.52 86.2721 81 81.8761 81 76.4561C81 71.0361 76.52 66.6361 71 66.6361ZM89.888 63.3641C89.888 61.5561 91.38 60.0921 93.224 60.0921H97.664C99.504 60.0921 101 61.5561 101 63.3641C100.992 64.2397 100.636 65.0761 100.011 65.6896C99.3864 66.3031 98.5436 66.6436 97.668 66.6361H93.224C92.7901 66.6403 92.3596 66.559 91.9572 66.3969C91.5547 66.2347 91.1881 65.9949 90.8783 65.6911C90.5685 65.3872 90.3216 65.0253 90.1517 64.6261C89.9818 64.2268 89.8922 63.798 89.888 63.3641Z" fill="#626262"/>
</svg>
