<svg width="32" height="26" viewBox="0 0 32 26" fill="none" xmlns="http://www.w3.org/2000/svg">
<path d="M11 5V1C11 0.734784 11.1054 0.48043 11.2929 0.292893C11.4804 0.105357 11.7348 0 12 0C12.2652 0 12.5196 0.105357 12.7071 0.292893C12.8946 0.48043 13 0.734784 13 1V5C13 5.26522 12.8946 5.51957 12.7071 5.70711C12.5196 5.89464 12.2652 6 12 6C11.7348 6 11.4804 5.89464 11.2929 5.70711C11.1054 5.51957 11 5.26522 11 5ZM16 6C16.2652 6 16.5196 5.89464 16.7071 5.70711C16.8946 5.51957 17 5.26522 17 5V1C17 0.734784 16.8946 0.48043 16.7071 0.292893C16.5196 0.105357 16.2652 0 16 0C15.7348 0 15.4804 0.105357 15.2929 0.292893C15.1054 0.48043 15 0.734784 15 1V5C15 5.26522 15.1054 5.51957 15.2929 5.70711C15.4804 5.89464 15.7348 6 16 6ZM20 6C20.2652 6 20.5196 5.89464 20.7071 5.70711C20.8946 5.51957 21 5.26522 21 5V1C21 0.734784 20.8946 0.48043 20.7071 0.292893C20.5196 0.105357 20.2652 0 20 0C19.7348 0 19.4804 0.105357 19.2929 0.292893C19.1054 0.48043 19 0.734784 19 1V5C19 5.26522 19.1054 5.51957 19.2929 5.70711C19.4804 5.89464 19.7348 6 20 6ZM31.6 11.8L28 14.5V22C28 23.0609 27.5786 24.0783 26.8284 24.8284C26.0783 25.5786 25.0609 26 24 26H8C6.93914 26 5.92172 25.5786 5.17158 24.8284C4.42143 24.0783 4 23.0609 4 22V14.5L0.400004 11.8C0.187831 11.6409 0.0475619 11.404 0.0100546 11.1414C-0.0274527 10.8789 0.0408742 10.6122 0.200004 10.4C0.359134 10.1878 0.596032 10.0476 0.858582 10.0101C1.12113 9.97254 1.38783 10.0409 1.6 10.2L4 12V9C4 8.73478 4.10536 8.48043 4.2929 8.29289C4.48043 8.10536 4.73479 8 5 8H27C27.2652 8 27.5196 8.10536 27.7071 8.29289C27.8946 8.48043 28 8.73478 28 9V12L30.4 10.2C30.6122 10.0409 30.8789 9.97254 31.1414 10.0101C31.404 10.0476 31.6409 10.1878 31.8 10.4C31.9591 10.6122 32.0275 10.8789 31.9899 11.1414C31.9524 11.404 31.8122 11.6409 31.6 11.8ZM26 10H6V22C6 22.5304 6.21072 23.0391 6.58579 23.4142C6.96086 23.7893 7.46957 24 8 24H24C24.5304 24 25.0391 23.7893 25.4142 23.4142C25.7893 23.0391 26 22.5304 26 22V10Z" fill="#F8F8F8"/>
</svg>
