<svg width="33" height="26" viewBox="0 0 33 26" fill="none" xmlns="http://www.w3.org/2000/svg">
<path d="M11.3438 5V1C11.3438 0.734784 11.4524 0.48043 11.6458 0.292893C11.8392 0.105357 12.1015 0 12.375 0C12.6485 0 12.9108 0.105357 13.1042 0.292893C13.2976 0.48043 13.4063 0.734784 13.4063 1V5C13.4063 5.26522 13.2976 5.51957 13.1042 5.70711C12.9108 5.89464 12.6485 6 12.375 6C12.1015 6 11.8392 5.89464 11.6458 5.70711C11.4524 5.51957 11.3438 5.26522 11.3438 5ZM16.5 6C16.7735 6 17.0358 5.89464 17.2292 5.70711C17.4226 5.51957 17.5313 5.26522 17.5313 5V1C17.5313 0.734784 17.4226 0.48043 17.2292 0.292893C17.0358 0.105357 16.7735 0 16.5 0C16.2265 0 15.9642 0.105357 15.7708 0.292893C15.5774 0.48043 15.4688 0.734784 15.4688 1V5C15.4688 5.26522 15.5774 5.51957 15.7708 5.70711C15.9642 5.89464 16.2265 6 16.5 6ZM20.625 6C20.8985 6 21.1608 5.89464 21.3542 5.70711C21.5476 5.51957 21.6563 5.26522 21.6563 5V1C21.6563 0.734784 21.5476 0.48043 21.3542 0.292893C21.1608 0.105357 20.8985 0 20.625 0C20.3515 0 20.0892 0.105357 19.8958 0.292893C19.7024 0.48043 19.5938 0.734784 19.5938 1V5C19.5938 5.26522 19.7024 5.51957 19.8958 5.70711C20.0892 5.89464 20.3515 6 20.625 6ZM32.7938 10.4C32.6296 10.1878 32.3853 10.0476 32.1146 10.0101C31.8438 9.97254 31.5688 10.0409 31.35 10.2L28.875 12V9C28.875 8.73478 28.7664 8.48043 28.573 8.29289C28.3796 8.10536 28.1173 8 27.8438 8H5.15625C4.88275 8 4.62045 8.10536 4.42705 8.29289C4.23365 8.48043 4.125 8.73478 4.125 9V12L1.65 10.2C1.4312 10.0409 1.15617 9.97254 0.885413 10.0101C0.614658 10.0476 0.370357 10.1878 0.206254 10.4C0.0421515 10.6122 -0.0283106 10.8789 0.0103688 11.1414C0.0490482 11.404 0.193701 11.6409 0.412504 11.8L4.125 14.5V22C4.125 23.0609 4.5596 24.0783 5.33319 24.8284C6.10678 25.5786 7.15598 26 8.25 26H24.75C25.844 26 26.8932 25.5786 27.6668 24.8284C28.4404 24.0783 28.875 23.0609 28.875 22V14.5L32.5875 11.8C32.6958 11.7212 32.7871 11.6225 32.8561 11.5095C32.9251 11.3965 32.9705 11.2714 32.9896 11.1414C33.0088 11.0114 33.0013 10.879 32.9677 10.7518C32.9341 10.6246 32.875 10.5051 32.7938 10.4Z" fill="#F8F8F8"/>
</svg>
