<svg width="57" height="57" viewBox="0 0 57 57" fill="none" xmlns="http://www.w3.org/2000/svg">
<path d="M28.4091 57C44.099 57 56.8182 44.2808 56.8182 28.5909C56.8182 12.901 44.099 0.181824 28.4091 0.181824C12.7192 0.181824 0 12.901 0 28.5909C0 44.2808 12.7192 57 28.4091 57Z" fill="#F5F5F5"/>
<path d="M20.2652 30.2008C22.9167 32 26.6099 31.2424 28.4091 28.5909C30.2083 25.9394 33.8068 25.1818 36.553 26.9811C39.1099 28.6856 39.8674 32 38.447 34.5568C41.572 29.2538 40.1515 22.3409 34.8485 18.8371C29.4508 15.2386 22.1591 16.6591 18.5606 22.0568C18.4659 22.2462 18.3712 22.4356 18.2765 22.5303C16.9508 25.2765 17.803 28.4962 20.2652 30.2008Z" fill="#ED4C5C"/>
<path d="M36.553 26.9811C33.9015 25.1818 30.2083 25.9394 28.4091 28.5909C26.6098 31.2424 23.0113 32 20.2651 30.2008C17.7083 28.4962 16.9507 25.1818 18.3712 22.625C15.1515 27.928 16.6666 34.8409 21.9697 38.3447C27.3674 41.9432 34.6591 40.5227 38.2575 35.125C38.3522 34.9356 38.4469 34.7462 38.5416 34.6515C39.8674 31.9053 39.0151 28.6856 36.553 26.9811Z" fill="#428BC1"/>
<path d="M5.49244 20.3523L12.0265 10.5985L11.3637 10.125L10.7008 9.74622L4.16669 19.5L4.82957 19.8788L5.49244 20.3523ZM7.29169 21.5833L7.95457 21.9621L14.394 12.2083L13.8258 11.8295L13.1629 11.3561L6.62881 21.1099L7.29169 21.5833ZM15.5303 12.9659L9.09093 22.7197L9.75381 23.1932L10.4167 23.572L16.8561 13.8182L16.1932 13.4394L15.5303 12.9659ZM44.0341 38.5341L44.697 39.0076L47.7273 34.4621L47.0644 33.9886L46.4015 33.6098L43.3712 38.1553L44.0341 38.5341ZM51.3258 36.8295L48.2955 41.375L48.9584 41.8485L49.6212 42.2273L52.6515 37.6818L51.9887 37.303L51.3258 36.8295ZM47.1591 40.6174L50.1894 36.072L49.5265 35.5985L48.8637 35.2197L45.8334 39.7652L46.4962 40.1439L47.1591 40.6174ZM43.6553 39.197L42.9924 38.8182L39.9621 43.3636L40.625 43.7424L41.2879 44.2159L44.3182 39.6705L43.6553 39.197ZM46.0227 40.8068L45.4546 40.428L42.4243 44.9735L42.9924 45.3523L43.6553 45.8258L46.6856 41.2803L46.0227 40.8068ZM47.822 42.0379L44.7917 46.5833L45.4546 47.0568L46.1174 47.4356L49.1477 42.8902L48.4849 42.4167L47.822 42.0379ZM4.82957 37.303L4.16669 37.6818L10.7008 47.4356L11.3637 47.0568L12.0265 46.5833L5.49244 36.8295L4.82957 37.303ZM10.7955 40.8068L10.1326 41.2803L13.1629 45.8258L13.8258 45.3523L14.394 44.9735L11.3637 40.428L10.7955 40.8068ZM9.75381 33.9886L9.09093 34.4621L15.5303 44.2159L16.1932 43.7424L16.8561 43.3636L10.4167 33.6098L9.75381 33.9886ZM6.62881 36.072L9.65911 40.6174L10.322 40.1439L10.9849 39.7652L7.95457 35.2197L7.29169 35.5985L6.62881 36.072ZM48.4849 14.7652L49.1477 14.2917L46.1174 9.74622L45.4546 10.125L44.7917 10.5985L47.822 15.1439L48.4849 14.7652ZM43.6553 17.9849L44.3182 17.5114L41.2879 12.9659L40.625 13.4394L39.9621 13.8182L42.9924 18.3636L43.6553 17.9849ZM48.2955 15.8068L51.3258 20.3523L51.9887 19.8788L52.6515 19.5L49.6212 14.9545L48.9584 15.3333L48.2955 15.8068ZM49.5265 21.5833L50.1894 21.1099L43.6553 11.3561L42.9924 11.8295L42.4243 12.2083L48.8637 21.9621L49.5265 21.5833ZM47.0644 23.1932L47.7273 22.7197L44.697 18.1742L44.0341 18.6477L43.3712 19.0265L46.4015 23.572L47.0644 23.1932Z" fill="#3E4347"/>
</svg>
