<svg width="45" height="45" viewBox="0 0 45 45" fill="none" xmlns="http://www.w3.org/2000/svg">
<path d="M15.3651 27.1777L11.064 22.8975M29.4227 29.2758L24.2612 24.1144M2 43.3333C2 43.3333 22.7086 35.9898 28.7093 29.9892C29.5869 29.113 30.2833 28.0725 30.7587 26.9272C31.2342 25.7819 31.4794 24.5541 31.4804 23.314C31.4813 22.0739 31.2381 20.8458 30.7644 19.6997C30.2907 18.5536 29.596 17.5121 28.7198 16.6345C27.8436 15.757 26.8031 15.0606 25.6578 14.5851C24.5125 14.1096 23.2847 13.8644 22.0446 13.8634C20.8045 13.8625 19.5764 14.1058 18.4303 14.5794C17.2843 15.0531 16.2427 15.7478 15.3651 16.624C9.34348 22.6457 2 43.3333 2 43.3333Z" stroke="#FF8800" stroke-width="2.5" stroke-linecap="round" stroke-linejoin="round"/>
<path d="M43.3963 16.687C43.3963 16.687 40.6057 12.4907 36.0528 12.4907C32.6118 12.4907 28.7093 16.687 28.7093 16.687C28.7093 16.687 31.4998 20.8832 36.0528 20.8832C40.6057 20.8832 43.3963 16.687 43.3963 16.687Z" stroke="#FF8800" stroke-width="2.5" stroke-linecap="round" stroke-linejoin="round"/>
<path d="M28.7093 2C28.7093 2 24.513 4.79052 24.513 9.34348C24.513 13.8964 28.7093 16.687 28.7093 16.687C28.7093 16.687 32.9056 12.8264 32.9056 9.34348C32.9056 4.79052 28.7093 2 28.7093 2Z" stroke="#FF8800" stroke-width="2.5" stroke-linecap="round" stroke-linejoin="round"/>
</svg>
