<svg width="57" height="57" viewBox="0 0 57 57" fill="none" xmlns="http://www.w3.org/2000/svg">
<path d="M47.8789 7.57576C42.7652 2.84091 36.0417 0 28.5607 0C21.0796 0 14.3561 2.84091 9.24249 7.57576H47.8789ZM9.24249 49.2424C14.3561 53.9773 21.0796 56.8182 28.5607 56.8182C36.0417 56.8182 42.7652 53.9773 47.8789 49.2424H9.24249Z" fill="#ED4C5C"/>
<path d="M0.151611 28.4091C0.151611 32.481 1.00388 36.2689 2.51904 39.7727H54.6024C56.1175 36.2689 56.9698 32.481 56.9698 28.4091C56.9698 24.3371 56.1175 20.5492 54.6024 17.0454H2.51904C1.00388 20.5492 0.151611 24.3371 0.151611 28.4091Z" fill="#2A5F9E"/>
<path d="M9.2425 49.2424H47.7842C50.6251 46.5909 52.9925 43.3712 54.5077 39.7727H2.42432C4.12886 43.3712 6.40159 46.5909 9.2425 49.2424ZM47.8789 7.57574H9.2425C6.40159 10.2273 4.03416 13.447 2.51901 17.0454H54.6023C52.9925 13.447 50.7198 10.2273 47.8789 7.57574Z" fill="#F9F9F9"/>
</svg>
